<ttFont>
<head>
    <!-- Most of this table will be recalculated by the compiler -->
    <tableVersion value="1.0"/>
    <fontRevision value="2.0"/>
    <checkSumAdjustment value="0x53efe5a4"/>
    <magicNumber value="0x5f0f3cf5"/>
    <flags value="00000000 00000111"/>
    <unitsPerEm value="1000"/>
    <created value="Wed May 24 18:23:34 2017"/>
    <modified value="Thu Sep 26 20:07:30 2019"/>
    <xMin value="-379"/>
    <yMin value="-1518"/>
    <xMax value="5037"/>
    <yMax value="1981"/>
    <macStyle value="00000000 00000001"/>
    <lowestRecPPEM value="6"/>
    <fontDirectionHint value="2"/>
    <indexToLocFormat value="0"/>
    <glyphDataFormat value="0"/>
  </head>
    <TTGlyph name="glyph00011" xMin="-97" yMin="823" xMax="95" yMax="1020">
      <contour>
        <pt x="-5" y="823" on="1"/>
        <pt x="-32" y="849" on="0"/>
        <pt x="-61" y="876" on="0"/>
        <pt x="-82" y="894" on="0"/>
        <pt x="-97" y="904" on="1"/>
        <pt x="-97" y="914" on="1"/>
        <pt x="-90" y="925" on="0"/>
        <pt x="-64" y="957" on="0"/>
        <pt x="-33" y="990" on="0"/>
        <pt x="-7" y="1016" on="0"/>
        <pt x="-1" y="1020" on="1"/>
        <pt x="9" y="1020" on="1"/>
        <pt x="50" y="994" on="0"/>
        <pt x="95" y="952" on="0"/>
        <pt x="95" y="928" on="1"/>
        <pt x="95" y="903" on="0"/>
        <pt x="38" y="847" on="0"/>
        <pt x="3" y="823" on="1"/>
      </contour>
    </TTGlyph>
    <TTGlyph name="glyph00015" xMin="-170" yMin="-207" xMax="170" yMax="8">
      <contour>
        <pt x="-78" y="-207" on="1"/>
        <pt x="-105" y="-181" on="0"/>
        <pt x="-134" y="-154" on="0"/>
        <pt x="-155" y="-136" on="0"/>
        <pt x="-170" y="-126" on="1"/>
        <pt x="-170" y="-116" on="1"/>
        <pt x="-163" y="-105" on="0"/>
        <pt x="-137" y="-73" on="0"/>
        <pt x="-106" y="-40" on="0"/>
        <pt x="-80" y="-14" on="0"/>
        <pt x="-74" y="-10" on="1"/>
        <pt x="-64" y="-10" on="1"/>
        <pt x="-38" y="-26" on="0"/>
        <pt x="-6" y="-53" on="0"/>
        <pt x="4" y="-64" on="1"/>
        <pt x="25" y="-39" on="0"/>
        <pt x="65" y="2" on="0"/>
        <pt x="74" y="8" on="1"/>
        <pt x="84" y="8" on="1"/>
        <pt x="125" y="-18" on="0"/>
        <pt x="170" y="-60" on="0"/>
        <pt x="170" y="-84" on="1"/>
        <pt x="170" y="-109" on="0"/>
        <pt x="113" y="-165" on="0"/>
        <pt x="78" y="-189" on="1"/>
        <pt x="70" y="-189" on="1"/>
        <pt x="49" y="-169" on="0"/>
        <pt x="22" y="-144" on="0"/>
        <pt x="10" y="-134" on="1"/>
        <pt x="-12" y="-168" on="0"/>
        <pt x="-70" y="-207" on="1"/>
      </contour>
    </TTGlyph>
    <TTGlyph name="glyph00086" xMin="-97" yMin="823" xMax="95" yMax="1020">
      <contour>
        <pt x="-5" y="823" on="1"/>
        <pt x="-32" y="849" on="0"/>
        <pt x="-62" y="876" on="0"/>
        <pt x="-82" y="894" on="0"/>
        <pt x="-97" y="904" on="1"/>
        <pt x="-97" y="914" on="1"/>
        <pt x="-90" y="925" on="0"/>
        <pt x="-64" y="957" on="0"/>
        <pt x="-33" y="990" on="0"/>
        <pt x="-7" y="1016" on="0"/>
        <pt x="-1" y="1020" on="1"/>
        <pt x="9" y="1020" on="1"/>
        <pt x="50" y="994" on="0"/>
        <pt x="95" y="952" on="0"/>
        <pt x="95" y="928" on="1"/>
        <pt x="95" y="903" on="0"/>
        <pt x="38" y="847" on="0"/>
        <pt x="3" y="823" on="1"/>
      </contour>
    </TTGlyph>
    <TTGlyph name="glyph00116" xMin="-170" yMin="-207" xMax="170" yMax="8">
      <contour>
        <pt x="-78" y="-207" on="1"/>
        <pt x="-103" y="-182" on="0"/>
        <pt x="-133" y="-155" on="0"/>
        <pt x="-155" y="-136" on="0"/>
        <pt x="-170" y="-126" on="1"/>
        <pt x="-170" y="-116" on="1"/>
        <pt x="-163" y="-105" on="0"/>
        <pt x="-137" y="-73" on="0"/>
        <pt x="-106" y="-40" on="0"/>
        <pt x="-80" y="-14" on="0"/>
        <pt x="-74" y="-10" on="1"/>
        <pt x="-64" y="-10" on="1"/>
        <pt x="-38" y="-26" on="0"/>
        <pt x="-6" y="-53" on="0"/>
        <pt x="4" y="-64" on="1"/>
        <pt x="25" y="-39" on="0"/>
        <pt x="65" y="2" on="0"/>
        <pt x="74" y="8" on="1"/>
        <pt x="84" y="8" on="1"/>
        <pt x="125" y="-18" on="0"/>
        <pt x="170" y="-60" on="0"/>
        <pt x="170" y="-84" on="1"/>
        <pt x="170" y="-109" on="0"/>
        <pt x="113" y="-165" on="0"/>
        <pt x="78" y="-189" on="1"/>
        <pt x="70" y="-189" on="1"/>
        <pt x="49" y="-169" on="0"/>
        <pt x="22" y="-144" on="0"/>
        <pt x="10" y="-134" on="1"/>
        <pt x="-12" y="-168" on="0"/>
        <pt x="-70" y="-207" on="1"/>
      </contour>
    </TTGlyph>
    <TTGlyph name="glyph00239" xMin="-57" yMin="-80" xMax="446" yMax="486">
      <contour>
        <pt x="-49" y="-80" on="1"/>
        <pt x="-57" y="-55" on="1"/>
        <pt x="-30" y="-36" on="0"/>
        <pt x="49" y="23" on="0"/>
        <pt x="138" y="96" on="0"/>
        <pt x="223" y="171" on="0"/>
        <pt x="290" y="241" on="0"/>
        <pt x="307" y="268" on="1"/>
        <pt x="325" y="298" on="0"/>
        <pt x="351" y="344" on="0"/>
        <pt x="372" y="389" on="0"/>
        <pt x="395" y="446" on="0"/>
        <pt x="410" y="486" on="1"/>
        <pt x="446" y="481" on="1"/>
        <pt x="434" y="427" on="0"/>
        <pt x="393" y="294" on="0"/>
        <pt x="340" y="164" on="0"/>
        <pt x="280" y="57" on="0"/>
        <pt x="250" y="28" on="1"/>
        <pt x="242" y="21" on="0"/>
        <pt x="188" y="-3" on="0"/>
        <pt x="115" y="-29" on="0"/>
        <pt x="37" y="-55" on="0"/>
        <pt x="-30" y="-75" on="0"/>
      </contour>
    </TTGlyph>
    <TTGlyph name="glyph00244" xMin="18" yMin="-373" xMax="906" yMax="829">
      <contour>
        <pt x="358" y="-373" on="1"/>
        <pt x="252" y="-373" on="0"/>
        <pt x="100" y="-293" on="0"/>
        <pt x="18" y="-149" on="0"/>
        <pt x="18" y="-52" on="1"/>
        <pt x="18" y="79" on="0"/>
        <pt x="122" y="281" on="0"/>
        <pt x="231" y="373" on="1"/>
        <pt x="173" y="394" on="0"/>
        <pt x="127" y="461" on="0"/>
        <pt x="127" y="508" on="1"/>
        <pt x="127" y="560" on="0"/>
        <pt x="175" y="650" on="0"/>
        <pt x="252" y="732" on="0"/>
        <pt x="295" y="772" on="1"/>
        <pt x="327" y="801" on="0"/>
        <pt x="393" y="829" on="0"/>
        <pt x="427" y="829" on="1"/>
        <pt x="463" y="829" on="0"/>
        <pt x="515" y="790" on="0"/>
        <pt x="515" y="754" on="1"/>
        <pt x="515" y="734" on="0"/>
        <pt x="496" y="695" on="0"/>
        <pt x="478" y="684" on="1"/>
        <pt x="466" y="685" on="1"/>
        <pt x="448" y="704" on="0"/>
        <pt x="400" y="720" on="0"/>
        <pt x="380" y="720" on="1"/>
        <pt x="339" y="720" on="0"/>
        <pt x="283" y="692" on="0"/>
        <pt x="255" y="649" on="0"/>
        <pt x="255" y="628" on="1"/>
        <pt x="255" y="585" on="0"/>
        <pt x="328" y="530" on="0"/>
        <pt x="393" y="530" on="1"/>
        <pt x="414" y="530" on="0"/>
        <pt x="435" y="533" on="0"/>
        <pt x="455" y="542" on="0"/>
        <pt x="474" y="552" on="1"/>
        <pt x="509" y="571" on="0"/>
        <pt x="582" y="616" on="0"/>
        <pt x="616" y="641" on="1"/>
        <pt x="633" y="629" on="1"/>
        <pt x="625" y="608" on="0"/>
        <pt x="595" y="566" on="1"/>
        <pt x="567" y="526" on="0"/>
        <pt x="525" y="503" on="1"/>
        <pt x="504" y="492" on="0"/>
        <pt x="439" y="454" on="0"/>
        <pt x="395" y="425" on="1"/>
        <pt x="319" y="376" on="0"/>
        <pt x="203" y="275" on="0"/>
        <pt x="138" y="155" on="0"/>
        <pt x="138" y="79" on="1"/>
        <pt x="138" y="40" on="0"/>
        <pt x="165" y="-37" on="0"/>
        <pt x="228" y="-101" on="0"/>
        <pt x="335" y="-139" on="0"/>
        <pt x="416" y="-139" on="1"/>
        <pt x="472" y="-139" on="0"/>
        <pt x="596" y="-113" on="0"/>
        <pt x="720" y="-51" on="0"/>
        <pt x="831" y="57" on="0"/>
        <pt x="873" y="139" on="1"/>
        <pt x="906" y="128" on="1"/>
        <pt x="879" y="58" on="0"/>
        <pt x="803" y="-84" on="0"/>
        <pt x="706" y="-213" on="0"/>
        <pt x="585" y="-314" on="0"/>
        <pt x="442" y="-373" on="0"/>
      </contour>
    </TTGlyph>
    <TTGlyph name="glyph00245" xMin="16" yMin="-373" xMax="920" yMax="717">
      <contour>
        <pt x="362" y="-373" on="1"/>
        <pt x="260" y="-373" on="0"/>
        <pt x="104" y="-283" on="0"/>
        <pt x="16" y="-113" on="0"/>
        <pt x="16" y="7" on="1"/>
        <pt x="16" y="151" on="0"/>
        <pt x="146" y="402" on="0"/>
        <pt x="266" y="512" on="1"/>
        <pt x="238" y="553" on="0"/>
        <pt x="186" y="583" on="0"/>
        <pt x="161" y="583" on="1"/>
        <pt x="153" y="604" on="1"/>
        <pt x="176" y="659" on="0"/>
        <pt x="275" y="717" on="0"/>
        <pt x="345" y="717" on="1"/>
        <pt x="409" y="717" on="0"/>
        <pt x="482" y="665" on="0"/>
        <pt x="482" y="621" on="1"/>
        <pt x="482" y="596" on="0"/>
        <pt x="452" y="536" on="0"/>
        <pt x="431" y="516" on="1"/>
        <pt x="436" y="514" on="0"/>
        <pt x="451" y="510" on="0"/>
        <pt x="464" y="510" on="1"/>
        <pt x="487" y="510" on="0"/>
        <pt x="504" y="474" on="0"/>
        <pt x="504" y="455" on="1"/>
        <pt x="504" y="439" on="0"/>
        <pt x="493" y="401" on="0"/>
        <pt x="463" y="374" on="0"/>
        <pt x="434" y="374" on="1"/>
        <pt x="397" y="374" on="0"/>
        <pt x="337" y="406" on="0"/>
        <pt x="306" y="446" on="1"/>
        <pt x="258" y="412" on="0"/>
        <pt x="177" y="327" on="0"/>
        <pt x="128" y="213" on="0"/>
        <pt x="128" y="137" on="1"/>
        <pt x="128" y="55" on="0"/>
        <pt x="204" y="-69" on="0"/>
        <pt x="341" y="-139" on="0"/>
        <pt x="430" y="-139" on="1"/>
        <pt x="486" y="-139" on="0"/>
        <pt x="610" y="-113" on="0"/>
        <pt x="734" y="-51" on="0"/>
        <pt x="845" y="57" on="0"/>
        <pt x="887" y="139" on="1"/>
        <pt x="920" y="128" on="1"/>
        <pt x="892" y="56" on="0"/>
        <pt x="815" y="-88" on="0"/>
        <pt x="716" y="-216" on="0"/>
        <pt x="594" y="-316" on="0"/>
        <pt x="448" y="-373" on="0"/>
      </contour>
    </TTGlyph>
    <TTGlyph name="glyph00275" xMin="18" yMin="-371" xMax="875" yMax="692">
      <contour>
        <pt x="271" y="-371" on="1"/>
        <pt x="188" y="-371" on="0"/>
        <pt x="75" y="-293" on="0"/>
        <pt x="18" y="-161" on="0"/>
        <pt x="18" y="-81" on="1"/>
        <pt x="18" y="-7" on="0"/>
        <pt x="55" y="159" on="0"/>
        <pt x="126" y="324" on="0"/>
        <pt x="177" y="397" on="1"/>
        <pt x="208" y="381" on="1"/>
        <pt x="165" y="310" on="0"/>
        <pt x="114" y="172" on="0"/>
        <pt x="114" y="84" on="1"/>
        <pt x="114" y="20" on="0"/>
        <pt x="152" y="-64" on="0"/>
        <pt x="216" y="-114" on="0"/>
        <pt x="293" y="-135" on="0"/>
        <pt x="332" y="-135" on="1"/>
        <pt x="455" y="-135" on="0"/>
        <pt x="547" y="-70" on="1"/>
        <pt x="639" y="-5" on="0"/>
        <pt x="639" y="30" on="1"/>
        <pt x="639" y="60" on="0"/>
        <pt x="559" y="81" on="1"/>
        <pt x="479" y="102" on="0"/>
        <pt x="479" y="195" on="1"/>
        <pt x="479" y="236" on="0"/>
        <pt x="510" y="341" on="0"/>
        <pt x="565" y="453" on="0"/>
        <pt x="635" y="558" on="0"/>
        <pt x="712" y="642" on="0"/>
        <pt x="791" y="692" on="0"/>
        <pt x="826" y="692" on="1"/>
        <pt x="875" y="692" on="0"/>
        <pt x="875" y="664" on="1"/>
        <pt x="875" y="660" on="0"/>
        <pt x="873" y="647" on="0"/>
        <pt x="869" y="639" on="1"/>
        <pt x="803" y="484" on="1"/>
        <pt x="790" y="482" on="1"/>
        <pt x="787" y="484" on="0"/>
        <pt x="768" y="488" on="0"/>
        <pt x="759" y="488" on="1"/>
        <pt x="734" y="488" on="0"/>
        <pt x="672" y="462" on="0"/>
        <pt x="615" y="421" on="0"/>
        <pt x="579" y="373" on="0"/>
        <pt x="579" y="350" on="1"/>
        <pt x="579" y="326" on="0"/>
        <pt x="603" y="304" on="0"/>
        <pt x="642" y="291" on="0"/>
        <pt x="685" y="277" on="0"/>
        <pt x="703" y="262" on="1"/>
        <pt x="727" y="243" on="0"/>
        <pt x="727" y="177" on="1"/>
        <pt x="727" y="132" on="0"/>
        <pt x="695" y="13" on="0"/>
        <pt x="662" y="-61" on="1"/>
        <pt x="622" y="-150" on="0"/>
        <pt x="507" y="-291" on="0"/>
        <pt x="360" y="-371" on="0"/>
      </contour>
    </TTGlyph>
    <TTGlyph name="glyph00277" xMin="18" yMin="-371" xMax="727" yMax="419">
      <contour>
        <pt x="271" y="-371" on="1"/>
        <pt x="188" y="-371" on="0"/>
        <pt x="75" y="-293" on="0"/>
        <pt x="18" y="-161" on="0"/>
        <pt x="18" y="-81" on="1"/>
        <pt x="18" y="-7" on="0"/>
        <pt x="55" y="159" on="0"/>
        <pt x="126" y="324" on="0"/>
        <pt x="177" y="397" on="1"/>
        <pt x="208" y="381" on="1"/>
        <pt x="165" y="310" on="0"/>
        <pt x="114" y="172" on="0"/>
        <pt x="114" y="84" on="1"/>
        <pt x="114" y="20" on="0"/>
        <pt x="152" y="-64" on="0"/>
        <pt x="216" y="-114" on="0"/>
        <pt x="293" y="-135" on="0"/>
        <pt x="332" y="-135" on="1"/>
        <pt x="455" y="-135" on="0"/>
        <pt x="547" y="-70" on="1"/>
        <pt x="639" y="-5" on="0"/>
        <pt x="639" y="30" on="1"/>
        <pt x="639" y="58" on="0"/>
        <pt x="583" y="72" on="1"/>
        <pt x="532" y="85" on="0"/>
        <pt x="479" y="144" on="0"/>
        <pt x="479" y="195" on="1"/>
        <pt x="479" y="225" on="0"/>
        <pt x="496" y="301" on="0"/>
        <pt x="524" y="372" on="0"/>
        <pt x="555" y="419" on="0"/>
        <pt x="570" y="419" on="1"/>
        <pt x="594" y="419" on="0"/>
        <pt x="594" y="399" on="1"/>
        <pt x="594" y="386" on="0"/>
        <pt x="575" y="359" on="0"/>
        <pt x="575" y="342" on="1"/>
        <pt x="575" y="308" on="0"/>
        <pt x="629" y="294" on="1"/>
        <pt x="669" y="284" on="0"/>
        <pt x="711" y="258" on="0"/>
        <pt x="727" y="214" on="0"/>
        <pt x="727" y="177" on="1"/>
        <pt x="727" y="132" on="0"/>
        <pt x="695" y="13" on="0"/>
        <pt x="662" y="-61" on="1"/>
        <pt x="622" y="-150" on="0"/>
        <pt x="507" y="-291" on="0"/>
        <pt x="360" y="-371" on="0"/>
      </contour>
    </TTGlyph>
    <TTGlyph name="glyph00283" xMin="-45" yMin="0" xMax="203" yMax="319">
      <contour>
        <pt x="0" y="0" on="1"/>
        <pt x="-19" y="0" on="0"/>
        <pt x="-45" y="46" on="0"/>
        <pt x="-45" y="101" on="1"/>
        <pt x="-45" y="157" on="0"/>
        <pt x="2" y="228" on="0"/>
        <pt x="49" y="228" on="1"/>
        <pt x="90" y="228" on="0"/>
        <pt x="156" y="273" on="0"/>
        <pt x="175" y="319" on="1"/>
        <pt x="203" y="313" on="1"/>
        <pt x="195" y="251" on="0"/>
        <pt x="160" y="139" on="0"/>
        <pt x="109" y="51" on="0"/>
        <pt x="41" y="0" on="0"/>
      </contour>
    </TTGlyph>
    <TTGlyph name="glyph00288" xMin="-210" yMin="-441" xMax="534" yMax="367">
      <contour>
        <pt x="-181" y="-441" on="1"/>
        <pt x="-210" y="-410" on="1"/>
        <pt x="-61" y="-281" on="0"/>
        <pt x="86" y="-27" on="1"/>
        <pt x="233" y="227" on="0"/>
        <pt x="314" y="297" on="1"/>
        <pt x="394" y="367" on="0"/>
        <pt x="494" y="367" on="1"/>
        <pt x="508" y="367" on="0"/>
        <pt x="534" y="332" on="0"/>
        <pt x="534" y="289" on="1"/>
        <pt x="534" y="250" on="0"/>
        <pt x="490" y="185" on="0"/>
        <pt x="422" y="147" on="0"/>
        <pt x="387" y="147" on="1"/>
        <pt x="326" y="147" on="0"/>
        <pt x="281" y="112" on="1"/>
        <pt x="235" y="76" on="0"/>
        <pt x="100" y="-123" on="1"/>
        <pt x="-34" y="-322" on="0"/>
      </contour>
    </TTGlyph>
    <TTGlyph name="glyph00303" xMin="-45" yMin="0" xMax="164" yMax="256">
      <contour>
        <pt x="0" y="0" on="1"/>
        <pt x="-18" y="0" on="0"/>
        <pt x="-45" y="49" on="0"/>
        <pt x="-45" y="101" on="1"/>
        <pt x="-45" y="151" on="0"/>
        <pt x="0" y="190" on="0"/>
        <pt x="34" y="190" on="1"/>
        <pt x="69" y="190" on="0"/>
        <pt x="119" y="217" on="0"/>
        <pt x="136" y="256" on="1"/>
        <pt x="164" y="250" on="1"/>
        <pt x="152" y="158" on="0"/>
        <pt x="105" y="48" on="0"/>
        <pt x="39" y="0" on="0"/>
      </contour>
    </TTGlyph>
    <TTGlyph name="glyph00313" xMin="-40" yMin="0" xMax="273" yMax="500">
      <contour>
        <pt x="0" y="0" on="1"/>
        <pt x="-16" y="0" on="0"/>
        <pt x="-40" y="28" on="0"/>
        <pt x="-40" y="60" on="1"/>
        <pt x="-40" y="100" on="0"/>
        <pt x="4" y="136" on="0"/>
        <pt x="30" y="136" on="1"/>
        <pt x="55" y="136" on="0"/>
        <pt x="122" y="152" on="0"/>
        <pt x="177" y="190" on="0"/>
        <pt x="183" y="222" on="1"/>
        <pt x="190" y="257" on="0"/>
        <pt x="193" y="306" on="0"/>
        <pt x="193" y="330" on="1"/>
        <pt x="193" y="365" on="0"/>
        <pt x="200" y="410" on="0"/>
        <pt x="224" y="460" on="0"/>
        <pt x="248" y="500" on="1"/>
        <pt x="273" y="492" on="1"/>
        <pt x="271" y="483" on="0"/>
        <pt x="269" y="467" on="0"/>
        <pt x="268" y="460" on="1"/>
        <pt x="252" y="301" on="1"/>
        <pt x="247" y="250" on="0"/>
        <pt x="209" y="144" on="0"/>
        <pt x="145" y="55" on="0"/>
        <pt x="56" y="0" on="0"/>
      </contour>
    </TTGlyph>
    <TTGlyph name="glyph00314" xMin="-40" yMin="0" xMax="273" yMax="500">
      <contour>
        <pt x="0" y="0" on="1"/>
        <pt x="-16" y="0" on="0"/>
        <pt x="-40" y="28" on="0"/>
        <pt x="-40" y="60" on="1"/>
        <pt x="-40" y="100" on="0"/>
        <pt x="4" y="136" on="0"/>
        <pt x="30" y="136" on="1"/>
        <pt x="55" y="136" on="0"/>
        <pt x="122" y="152" on="0"/>
        <pt x="177" y="190" on="0"/>
        <pt x="183" y="222" on="1"/>
        <pt x="190" y="257" on="0"/>
        <pt x="193" y="306" on="0"/>
        <pt x="193" y="330" on="1"/>
        <pt x="193" y="365" on="0"/>
        <pt x="200" y="410" on="0"/>
        <pt x="224" y="460" on="0"/>
        <pt x="248" y="500" on="1"/>
        <pt x="273" y="492" on="1"/>
        <pt x="271" y="483" on="0"/>
        <pt x="269" y="467" on="0"/>
        <pt x="268" y="460" on="1"/>
        <pt x="252" y="301" on="1"/>
        <pt x="247" y="250" on="0"/>
        <pt x="209" y="144" on="0"/>
        <pt x="145" y="55" on="0"/>
        <pt x="56" y="0" on="0"/>
      </contour>
    </TTGlyph>
    <TTGlyph name="glyph00317" xMin="14" yMin="-385" xMax="918" yMax="715">
      <contour>
        <pt x="360" y="-385" on="1"/>
        <pt x="258" y="-385" on="0"/>
        <pt x="102" y="-295" on="0"/>
        <pt x="14" y="-125" on="0"/>
        <pt x="14" y="-5" on="1"/>
        <pt x="14" y="146" on="0"/>
        <pt x="153" y="403" on="0"/>
        <pt x="270" y="505" on="1"/>
        <pt x="218" y="581" on="0"/>
        <pt x="170" y="581" on="1"/>
        <pt x="162" y="602" on="1"/>
        <pt x="183" y="658" on="0"/>
        <pt x="285" y="715" on="0"/>
        <pt x="354" y="715" on="1"/>
        <pt x="418" y="715" on="0"/>
        <pt x="491" y="663" on="0"/>
        <pt x="491" y="619" on="1"/>
        <pt x="491" y="592" on="0"/>
        <pt x="461" y="536" on="0"/>
        <pt x="426" y="512" on="1"/>
        <pt x="438" y="508" on="0"/>
        <pt x="474" y="504" on="0"/>
        <pt x="517" y="503" on="1"/>
        <pt x="539" y="503" on="0"/>
        <pt x="557" y="458" on="0"/>
        <pt x="557" y="423" on="1"/>
        <pt x="557" y="368" on="0"/>
        <pt x="514" y="313" on="0"/>
        <pt x="483" y="313" on="1"/>
        <pt x="424" y="313" on="0"/>
        <pt x="343" y="368" on="0"/>
        <pt x="304" y="434" on="1"/>
        <pt x="256" y="400" on="0"/>
        <pt x="175" y="315" on="0"/>
        <pt x="126" y="201" on="0"/>
        <pt x="126" y="125" on="1"/>
        <pt x="126" y="43" on="0"/>
        <pt x="202" y="-81" on="0"/>
        <pt x="339" y="-151" on="0"/>
        <pt x="428" y="-151" on="1"/>
        <pt x="484" y="-151" on="0"/>
        <pt x="608" y="-125" on="0"/>
        <pt x="732" y="-63" on="0"/>
        <pt x="843" y="45" on="0"/>
        <pt x="885" y="127" on="1"/>
        <pt x="918" y="116" on="1"/>
        <pt x="890" y="44" on="0"/>
        <pt x="813" y="-100" on="0"/>
        <pt x="714" y="-228" on="0"/>
        <pt x="592" y="-328" on="0"/>
        <pt x="446" y="-385" on="0"/>
      </contour>
    </TTGlyph>
    <TTGlyph name="glyph00319" xMin="-40" yMin="0" xMax="287" yMax="317">
      <contour>
        <pt x="0" y="0" on="1"/>
        <pt x="-16" y="0" on="0"/>
        <pt x="-40" y="39" on="0"/>
        <pt x="-40" y="78" on="1"/>
        <pt x="-40" y="118" on="0"/>
        <pt x="4" y="182" on="0"/>
        <pt x="72" y="220" on="0"/>
        <pt x="107" y="220" on="1"/>
        <pt x="166" y="220" on="0"/>
        <pt x="234" y="264" on="0"/>
        <pt x="259" y="317" on="1"/>
        <pt x="287" y="311" on="1"/>
        <pt x="229" y="131" on="0"/>
        <pt x="163" y="65" on="1"/>
        <pt x="98" y="0" on="0"/>
      </contour>
    </TTGlyph>
    <TTGlyph name="glyph00326" xMin="18" yMin="-371" xMax="727" yMax="407">
      <contour>
        <pt x="271" y="-371" on="1"/>
        <pt x="188" y="-371" on="0"/>
        <pt x="75" y="-293" on="0"/>
        <pt x="18" y="-161" on="0"/>
        <pt x="18" y="-81" on="1"/>
        <pt x="18" y="-7" on="0"/>
        <pt x="55" y="159" on="0"/>
        <pt x="126" y="324" on="0"/>
        <pt x="177" y="397" on="1"/>
        <pt x="208" y="381" on="1"/>
        <pt x="165" y="310" on="0"/>
        <pt x="114" y="172" on="0"/>
        <pt x="114" y="84" on="1"/>
        <pt x="114" y="20" on="0"/>
        <pt x="152" y="-64" on="0"/>
        <pt x="216" y="-114" on="0"/>
        <pt x="293" y="-135" on="0"/>
        <pt x="332" y="-135" on="1"/>
        <pt x="455" y="-135" on="0"/>
        <pt x="547" y="-70" on="1"/>
        <pt x="639" y="-5" on="0"/>
        <pt x="639" y="30" on="1"/>
        <pt x="639" y="57" on="0"/>
        <pt x="584" y="72" on="1"/>
        <pt x="532" y="86" on="0"/>
        <pt x="480" y="138" on="0"/>
        <pt x="480" y="188" on="1"/>
        <pt x="480" y="215" on="0"/>
        <pt x="495" y="276" on="0"/>
        <pt x="505" y="305" on="1"/>
        <pt x="532" y="383" on="1"/>
        <pt x="535" y="392" on="0"/>
        <pt x="553" y="407" on="0"/>
        <pt x="564" y="407" on="1"/>
        <pt x="578" y="407" on="0"/>
        <pt x="583" y="398" on="0"/>
        <pt x="583" y="390" on="1"/>
        <pt x="583" y="382" on="0"/>
        <pt x="574" y="353" on="0"/>
        <pt x="574" y="342" on="1"/>
        <pt x="574" y="308" on="0"/>
        <pt x="627" y="294" on="1"/>
        <pt x="653" y="287" on="0"/>
        <pt x="691" y="272" on="0"/>
        <pt x="704" y="261" on="1"/>
        <pt x="727" y="241" on="0"/>
        <pt x="727" y="177" on="1"/>
        <pt x="727" y="89" on="0"/>
        <pt x="662" y="-61" on="1"/>
        <pt x="630" y="-135" on="0"/>
        <pt x="545" y="-249" on="0"/>
        <pt x="495" y="-290" on="1"/>
        <pt x="395" y="-371" on="0"/>
      </contour>
    </TTGlyph>
    <TTGlyph name="glyph00329" xMin="-12" yMin="-56" xMax="133" yMax="490">
      <contour>
        <pt x="18" y="-56" on="1"/>
        <pt x="9" y="-56" on="0"/>
        <pt x="-4" y="-41" on="0"/>
        <pt x="-4" y="-27" on="1"/>
        <pt x="-4" y="-10" on="0"/>
        <pt x="15" y="44" on="0"/>
        <pt x="35" y="114" on="0"/>
        <pt x="35" y="153" on="1"/>
        <pt x="35" y="187" on="0"/>
        <pt x="8" y="243" on="0"/>
        <pt x="-12" y="273" on="1"/>
        <pt x="64" y="487" on="1"/>
        <pt x="74" y="490" on="1"/>
        <pt x="94" y="469" on="0"/>
        <pt x="120" y="403" on="0"/>
        <pt x="133" y="335" on="0"/>
        <pt x="133" y="309" on="1"/>
        <pt x="133" y="246" on="0"/>
        <pt x="103" y="140" on="0"/>
        <pt x="62" y="40" on="0"/>
        <pt x="45" y="-16" on="1"/>
        <pt x="33" y="-56" on="0"/>
      </contour>
    </TTGlyph>
    <TTGlyph name="glyph00332" xMin="-56" yMin="-94" xMax="509" yMax="361">
      <contour>
        <pt x="-48" y="-94" on="1"/>
        <pt x="-56" y="-69" on="1"/>
        <pt x="42" y="-1" on="0"/>
        <pt x="154" y="84" on="1"/>
        <pt x="200" y="119" on="0"/>
        <pt x="257" y="169" on="0"/>
        <pt x="297" y="219" on="0"/>
        <pt x="317" y="253" on="1"/>
        <pt x="352" y="311" on="0"/>
        <pt x="435" y="361" on="0"/>
        <pt x="465" y="361" on="1"/>
        <pt x="509" y="361" on="0"/>
        <pt x="509" y="341" on="1"/>
        <pt x="509" y="319" on="0"/>
        <pt x="458" y="265" on="0"/>
        <pt x="414" y="251" on="1"/>
        <pt x="381" y="241" on="0"/>
        <pt x="345" y="201" on="0"/>
        <pt x="320" y="138" on="0"/>
        <pt x="305" y="95" on="1"/>
        <pt x="275" y="9" on="0"/>
        <pt x="260" y="-3" on="1"/>
        <pt x="252" y="-10" on="0"/>
        <pt x="192" y="-31" on="0"/>
        <pt x="142" y="-46" on="1"/>
        <pt x="39" y="-76" on="0"/>
      </contour>
    </TTGlyph>
    <TTGlyph name="glyph00335" xMin="-210" yMin="-444" xMax="542" yMax="369">
      <contour>
        <pt x="-181" y="-444" on="1"/>
        <pt x="-210" y="-413" on="1"/>
        <pt x="-66" y="-288" on="0"/>
        <pt x="73" y="-56" on="1"/>
        <pt x="210" y="174" on="0"/>
        <pt x="300" y="252" on="1"/>
        <pt x="389" y="329" on="0"/>
        <pt x="477" y="369" on="1"/>
        <pt x="499" y="364" on="1"/>
        <pt x="517" y="364" on="0"/>
        <pt x="542" y="344" on="0"/>
        <pt x="542" y="315" on="1"/>
        <pt x="542" y="264" on="0"/>
        <pt x="480" y="238" on="1"/>
        <pt x="417" y="212" on="0"/>
        <pt x="331" y="148" on="1"/>
        <pt x="245" y="84" on="0"/>
        <pt x="147" y="-59" on="1"/>
        <pt x="90" y="-143" on="0"/>
        <pt x="-14" y="-279" on="0"/>
        <pt x="-119" y="-393" on="0"/>
      </contour>
    </TTGlyph>
    <TTGlyph name="glyph00363" xMin="-40" yMin="0" xMax="461" yMax="535">
      <contour>
        <pt x="0" y="0" on="1"/>
        <pt x="-22" y="0" on="0"/>
        <pt x="-40" y="50" on="0"/>
        <pt x="-40" y="78" on="1"/>
        <pt x="-40" y="118" on="0"/>
        <pt x="4" y="182" on="0"/>
        <pt x="72" y="220" on="0"/>
        <pt x="107" y="220" on="1"/>
        <pt x="198" y="220" on="0"/>
        <pt x="206" y="330" on="1"/>
        <pt x="213" y="439" on="0"/>
        <pt x="270" y="535" on="1"/>
        <pt x="295" y="530" on="1"/>
        <pt x="292" y="516" on="0"/>
        <pt x="290" y="494" on="0"/>
        <pt x="290" y="480" on="1"/>
        <pt x="290" y="432" on="0"/>
        <pt x="354" y="380" on="0"/>
        <pt x="417" y="380" on="1"/>
        <pt x="461" y="380" on="0"/>
        <pt x="461" y="276" on="1"/>
        <pt x="461" y="229" on="0"/>
        <pt x="430" y="174" on="0"/>
        <pt x="387" y="152" on="0"/>
        <pt x="367" y="152" on="1"/>
        <pt x="305" y="152" on="0"/>
        <pt x="238" y="194" on="0"/>
        <pt x="223" y="219" on="1"/>
        <pt x="207" y="169" on="0"/>
        <pt x="166" y="88" on="0"/>
        <pt x="140" y="59" on="1"/>
        <pt x="87" y="0" on="0"/>
      </contour>
    </TTGlyph>
    <TTGlyph name="glyph00364" xMin="-44" yMin="0" xMax="351" yMax="355">
      <contour>
        <pt x="0" y="0" on="1"/>
        <pt x="-19" y="0" on="0"/>
        <pt x="-38" y="31" on="0"/>
        <pt x="-44" y="78" on="0"/>
        <pt x="-44" y="101" on="1"/>
        <pt x="-44" y="150" on="0"/>
        <pt x="-17" y="205" on="0"/>
        <pt x="27" y="228" on="0"/>
        <pt x="50" y="228" on="1"/>
        <pt x="91" y="228" on="0"/>
        <pt x="146" y="267" on="0"/>
        <pt x="168" y="298" on="1"/>
        <pt x="185" y="322" on="1"/>
        <pt x="197" y="339" on="0"/>
        <pt x="216" y="355" on="0"/>
        <pt x="231" y="355" on="1"/>
        <pt x="250" y="355" on="0"/>
        <pt x="271" y="345" on="1"/>
        <pt x="292" y="335" on="0"/>
        <pt x="311" y="335" on="1"/>
        <pt x="351" y="335" on="0"/>
        <pt x="351" y="255" on="1"/>
        <pt x="351" y="200" on="0"/>
        <pt x="310" y="145" on="0"/>
        <pt x="277" y="145" on="1"/>
        <pt x="254" y="145" on="0"/>
        <pt x="216" y="166" on="0"/>
        <pt x="190" y="187" on="1"/>
        <pt x="185" y="191" on="0"/>
        <pt x="179" y="191" on="1"/>
        <pt x="167" y="191" on="0"/>
        <pt x="141" y="128" on="1"/>
        <pt x="116" y="66" on="0"/>
        <pt x="83" y="33" on="1"/>
        <pt x="50" y="0" on="0"/>
      </contour>
    </TTGlyph>
    <TTGlyph name="glyph00365" xMin="-40" yMin="0" xMax="468" yMax="457">
      <contour>
        <pt x="0" y="0" on="1"/>
        <pt x="-20" y="0" on="0"/>
        <pt x="-40" y="32" on="0"/>
        <pt x="-40" y="55" on="1"/>
        <pt x="-40" y="89" on="0"/>
        <pt x="-1" y="136" on="0"/>
        <pt x="30" y="136" on="1"/>
        <pt x="88" y="136" on="0"/>
        <pt x="168" y="179" on="0"/>
        <pt x="211" y="241" on="0"/>
        <pt x="213" y="271" on="1"/>
        <pt x="214" y="287" on="0"/>
        <pt x="227" y="347" on="0"/>
        <pt x="255" y="421" on="0"/>
        <pt x="277" y="457" on="1"/>
        <pt x="302" y="452" on="1"/>
        <pt x="299" y="438" on="0"/>
        <pt x="297" y="416" on="0"/>
        <pt x="297" y="402" on="1"/>
        <pt x="297" y="354" on="0"/>
        <pt x="361" y="302" on="0"/>
        <pt x="424" y="302" on="1"/>
        <pt x="468" y="302" on="0"/>
        <pt x="468" y="198" on="1"/>
        <pt x="468" y="151" on="0"/>
        <pt x="437" y="96" on="0"/>
        <pt x="394" y="74" on="0"/>
        <pt x="374" y="74" on="1"/>
        <pt x="317" y="74" on="0"/>
        <pt x="236" y="120" on="0"/>
        <pt x="220" y="163" on="1"/>
        <pt x="198" y="82" on="0"/>
        <pt x="139" y="41" on="1"/>
        <pt x="78" y="0" on="0"/>
      </contour>
    </TTGlyph>
    <TTGlyph name="glyph00366" xMin="-40" yMin="0" xMax="411" yMax="378">
      <contour>
        <pt x="0" y="0" on="1"/>
        <pt x="-13" y="0" on="0"/>
        <pt x="-27" y="18" on="1"/>
        <pt x="-40" y="34" on="0"/>
        <pt x="-40" y="80" on="1"/>
        <pt x="-40" y="136" on="0"/>
        <pt x="4" y="190" on="0"/>
        <pt x="34" y="190" on="1"/>
        <pt x="142" y="190" on="0"/>
        <pt x="212" y="300" on="1"/>
        <pt x="241" y="346" on="1"/>
        <pt x="252" y="364" on="0"/>
        <pt x="270" y="378" on="0"/>
        <pt x="284" y="378" on="1"/>
        <pt x="297" y="378" on="0"/>
        <pt x="322" y="366" on="1"/>
        <pt x="346" y="354" on="0"/>
        <pt x="371" y="354" on="1"/>
        <pt x="382" y="354" on="0"/>
        <pt x="411" y="324" on="0"/>
        <pt x="411" y="274" on="1"/>
        <pt x="411" y="219" on="0"/>
        <pt x="368" y="164" on="0"/>
        <pt x="337" y="164" on="1"/>
        <pt x="301" y="164" on="0"/>
        <pt x="270" y="183" on="1"/>
        <pt x="238" y="202" on="0"/>
        <pt x="225" y="202" on="1"/>
        <pt x="209" y="202" on="0"/>
        <pt x="182" y="149" on="1"/>
        <pt x="154" y="95" on="0"/>
        <pt x="110" y="48" on="1"/>
        <pt x="65" y="0" on="0"/>
      </contour>
    </TTGlyph>
    <TTGlyph name="glyph00371" xMin="-40" yMin="0" xMax="354" yMax="476">
      <contour>
        <pt x="0" y="0" on="1"/>
        <pt x="-40" y="0" on="0"/>
        <pt x="-40" y="79" on="1"/>
        <pt x="-40" y="123" on="0"/>
        <pt x="-6" y="190" on="0"/>
        <pt x="34" y="190" on="1"/>
        <pt x="70" y="190" on="0"/>
        <pt x="116" y="218" on="0"/>
        <pt x="140" y="261" on="0"/>
        <pt x="142" y="281" on="1"/>
        <pt x="145" y="307" on="0"/>
        <pt x="166" y="382" on="0"/>
        <pt x="194" y="455" on="0"/>
        <pt x="207" y="476" on="1"/>
        <pt x="232" y="471" on="1"/>
        <pt x="230" y="461" on="0"/>
        <pt x="227" y="438" on="0"/>
        <pt x="227" y="412" on="1"/>
        <pt x="227" y="366" on="0"/>
        <pt x="273" y="321" on="0"/>
        <pt x="310" y="321" on="1"/>
        <pt x="354" y="321" on="0"/>
        <pt x="354" y="217" on="1"/>
        <pt x="354" y="170" on="0"/>
        <pt x="323" y="115" on="0"/>
        <pt x="280" y="93" on="0"/>
        <pt x="260" y="93" on="1"/>
        <pt x="222" y="93" on="0"/>
        <pt x="162" y="137" on="0"/>
        <pt x="150" y="179" on="1"/>
        <pt x="139" y="136" on="0"/>
        <pt x="102" y="53" on="0"/>
        <pt x="43" y="0" on="0"/>
      </contour>
    </TTGlyph>
    <TTGlyph name="glyph00373" xMin="-40" yMin="0" xMax="398" yMax="340">
      <contour>
        <pt x="0" y="0" on="1"/>
        <pt x="-22" y="0" on="0"/>
        <pt x="-40" y="50" on="0"/>
        <pt x="-40" y="78" on="1"/>
        <pt x="-40" y="118" on="0"/>
        <pt x="4" y="182" on="0"/>
        <pt x="72" y="220" on="0"/>
        <pt x="107" y="220" on="1"/>
        <pt x="136" y="220" on="0"/>
        <pt x="189" y="240" on="0"/>
        <pt x="211" y="272" on="1"/>
        <pt x="234" y="305" on="1"/>
        <pt x="248" y="325" on="0"/>
        <pt x="269" y="340" on="0"/>
        <pt x="283" y="340" on="1"/>
        <pt x="296" y="340" on="0"/>
        <pt x="314" y="333" on="0"/>
        <pt x="338" y="326" on="0"/>
        <pt x="358" y="326" on="1"/>
        <pt x="398" y="326" on="0"/>
        <pt x="398" y="246" on="1"/>
        <pt x="398" y="191" on="0"/>
        <pt x="355" y="136" on="0"/>
        <pt x="324" y="136" on="1"/>
        <pt x="295" y="136" on="0"/>
        <pt x="257" y="155" on="0"/>
        <pt x="230" y="173" on="0"/>
        <pt x="217" y="173" on="1"/>
        <pt x="205" y="173" on="0"/>
        <pt x="149" y="87" on="1"/>
        <pt x="94" y="0" on="0"/>
      </contour>
    </TTGlyph>
    <TTGlyph name="glyph00374" xMin="-40" yMin="0" xMax="398" yMax="476">
      <contour>
        <pt x="0" y="0" on="1"/>
        <pt x="-40" y="0" on="0"/>
        <pt x="-40" y="79" on="1"/>
        <pt x="-40" y="123" on="0"/>
        <pt x="-6" y="190" on="0"/>
        <pt x="34" y="190" on="1"/>
        <pt x="55" y="190" on="0"/>
        <pt x="82" y="198" on="0"/>
        <pt x="96" y="206" on="1"/>
        <pt x="105" y="211" on="0"/>
        <pt x="132" y="244" on="0"/>
        <pt x="133" y="252" on="1"/>
        <pt x="147" y="315" on="0"/>
        <pt x="170" y="396" on="0"/>
        <pt x="193" y="452" on="0"/>
        <pt x="207" y="476" on="1"/>
        <pt x="232" y="471" on="1"/>
        <pt x="229" y="457" on="0"/>
        <pt x="227" y="435" on="0"/>
        <pt x="227" y="421" on="1"/>
        <pt x="227" y="373" on="0"/>
        <pt x="291" y="321" on="0"/>
        <pt x="354" y="321" on="1"/>
        <pt x="398" y="321" on="0"/>
        <pt x="398" y="217" on="1"/>
        <pt x="398" y="170" on="0"/>
        <pt x="367" y="115" on="0"/>
        <pt x="324" y="93" on="0"/>
        <pt x="304" y="93" on="1"/>
        <pt x="188" y="93" on="0"/>
        <pt x="150" y="179" on="1"/>
        <pt x="138" y="129" on="0"/>
        <pt x="98" y="48" on="0"/>
        <pt x="40" y="0" on="0"/>
      </contour>
    </TTGlyph>
    <TTGlyph name="glyph00378" xMin="-40" yMin="-7" xMax="253" yMax="220">
      <contour>
        <pt x="106" y="-7" on="1"/>
        <pt x="79" y="-7" on="0"/>
        <pt x="20" y="0" on="0"/>
        <pt x="0" y="0" on="1"/>
        <pt x="-16" y="0" on="0"/>
        <pt x="-40" y="39" on="0"/>
        <pt x="-40" y="78" on="1"/>
        <pt x="-40" y="118" on="0"/>
        <pt x="4" y="182" on="0"/>
        <pt x="72" y="220" on="0"/>
        <pt x="107" y="220" on="1"/>
        <pt x="136" y="220" on="0"/>
        <pt x="186" y="213" on="0"/>
        <pt x="213" y="213" on="1"/>
        <pt x="227" y="213" on="0"/>
        <pt x="253" y="178" on="0"/>
        <pt x="253" y="135" on="1"/>
        <pt x="253" y="96" on="0"/>
        <pt x="209" y="31" on="0"/>
        <pt x="141" y="-7" on="0"/>
      </contour>
    </TTGlyph>
    <TTGlyph name="glyph00380" xMin="-6" yMin="-35" xMax="413" yMax="242">
      <contour>
        <pt x="18" y="-35" on="1"/>
        <pt x="-6" y="-35" on="0"/>
        <pt x="-6" y="-15" on="1"/>
        <pt x="-6" y="-3" on="0"/>
        <pt x="24" y="52" on="0"/>
        <pt x="70" y="118" on="0"/>
        <pt x="122" y="179" on="0"/>
        <pt x="146" y="197" on="1"/>
        <pt x="203" y="242" on="0"/>
        <pt x="260" y="242" on="1"/>
        <pt x="285" y="242" on="0"/>
        <pt x="320" y="224" on="0"/>
        <pt x="353" y="206" on="0"/>
        <pt x="373" y="206" on="1"/>
        <pt x="387" y="206" on="0"/>
        <pt x="413" y="173" on="0"/>
        <pt x="413" y="126" on="1"/>
        <pt x="413" y="73" on="0"/>
        <pt x="370" y="16" on="0"/>
        <pt x="339" y="16" on="1"/>
        <pt x="314" y="16" on="0"/>
        <pt x="274" y="34" on="0"/>
        <pt x="239" y="57" on="0"/>
        <pt x="203" y="75" on="0"/>
        <pt x="182" y="75" on="1"/>
        <pt x="158" y="75" on="0"/>
        <pt x="104" y="47" on="0"/>
        <pt x="60" y="9" on="0"/>
        <pt x="50" y="-8" on="1"/>
        <pt x="35" y="-35" on="0"/>
      </contour>
    </TTGlyph>
    <TTGlyph name="glyph00387" xMin="-45" yMin="0" xMax="390" yMax="514">
      <contour>
        <pt x="0" y="0" on="1"/>
        <pt x="-19" y="0" on="0"/>
        <pt x="-45" y="46" on="0"/>
        <pt x="-45" y="101" on="1"/>
        <pt x="-45" y="166" on="0"/>
        <pt x="7" y="228" on="0"/>
        <pt x="49" y="228" on="1"/>
        <pt x="106" y="228" on="0"/>
        <pt x="167" y="271" on="0"/>
        <pt x="176" y="315" on="1"/>
        <pt x="187" y="366" on="0"/>
        <pt x="221" y="479" on="0"/>
        <pt x="243" y="514" on="1"/>
        <pt x="268" y="509" on="1"/>
        <pt x="266" y="499" on="0"/>
        <pt x="263" y="476" on="0"/>
        <pt x="263" y="450" on="1"/>
        <pt x="263" y="404" on="0"/>
        <pt x="309" y="359" on="0"/>
        <pt x="346" y="359" on="1"/>
        <pt x="390" y="359" on="0"/>
        <pt x="390" y="255" on="1"/>
        <pt x="390" y="208" on="0"/>
        <pt x="359" y="153" on="0"/>
        <pt x="316" y="131" on="0"/>
        <pt x="296" y="131" on="1"/>
        <pt x="258" y="131" on="0"/>
        <pt x="198" y="175" on="0"/>
        <pt x="186" y="217" on="1"/>
        <pt x="153" y="105" on="0"/>
        <pt x="71" y="0" on="0"/>
      </contour>
    </TTGlyph>
    <TTGlyph name="glyph00388" xMin="-40" yMin="0" xMax="410" yMax="334">
      <contour>
        <pt x="0" y="0" on="1"/>
        <pt x="-40" y="0" on="0"/>
        <pt x="-40" y="55" on="1"/>
        <pt x="-40" y="87" on="0"/>
        <pt x="-16" y="122" on="0"/>
        <pt x="17" y="136" on="0"/>
        <pt x="30" y="136" on="1"/>
        <pt x="101" y="136" on="0"/>
        <pt x="150" y="185" on="1"/>
        <pt x="175" y="210" on="0"/>
        <pt x="215" y="259" on="0"/>
        <pt x="229" y="284" on="1"/>
        <pt x="258" y="334" on="0"/>
        <pt x="284" y="334" on="1"/>
        <pt x="297" y="334" on="0"/>
        <pt x="314" y="325" on="0"/>
        <pt x="342" y="316" on="0"/>
        <pt x="369" y="316" on="1"/>
        <pt x="387" y="316" on="0"/>
        <pt x="404" y="292" on="0"/>
        <pt x="410" y="255" on="0"/>
        <pt x="410" y="237" on="1"/>
        <pt x="410" y="182" on="0"/>
        <pt x="367" y="126" on="0"/>
        <pt x="336" y="126" on="1"/>
        <pt x="303" y="126" on="0"/>
        <pt x="263" y="150" on="0"/>
        <pt x="238" y="174" on="0"/>
        <pt x="226" y="174" on="1"/>
        <pt x="223" y="174" on="0"/>
        <pt x="216" y="167" on="0"/>
        <pt x="195" y="138" on="0"/>
        <pt x="171" y="105" on="1"/>
        <pt x="130" y="47" on="0"/>
        <pt x="40" y="0" on="0"/>
      </contour>
    </TTGlyph>
    <TTGlyph name="glyph00402" xMin="-44" yMin="0" xMax="437" yMax="357">
      <contour>
        <pt x="0" y="0" on="1"/>
        <pt x="-21" y="0" on="0"/>
        <pt x="-44" y="46" on="0"/>
        <pt x="-44" y="101" on="1"/>
        <pt x="-44" y="150" on="0"/>
        <pt x="-17" y="205" on="0"/>
        <pt x="27" y="228" on="0"/>
        <pt x="50" y="228" on="1"/>
        <pt x="107" y="228" on="0"/>
        <pt x="190" y="276" on="0"/>
        <pt x="225" y="324" on="1"/>
        <pt x="240" y="344" on="0"/>
        <pt x="259" y="357" on="0"/>
        <pt x="272" y="357" on="1"/>
        <pt x="292" y="357" on="0"/>
        <pt x="357" y="336" on="0"/>
        <pt x="397" y="336" on="1"/>
        <pt x="415" y="336" on="0"/>
        <pt x="432" y="311" on="0"/>
        <pt x="437" y="274" on="0"/>
        <pt x="437" y="256" on="1"/>
        <pt x="437" y="201" on="0"/>
        <pt x="396" y="146" on="0"/>
        <pt x="363" y="146" on="1"/>
        <pt x="324" y="146" on="0"/>
        <pt x="268" y="166" on="0"/>
        <pt x="232" y="186" on="0"/>
        <pt x="220" y="186" on="1"/>
        <pt x="210" y="186" on="0"/>
        <pt x="199" y="174" on="0"/>
        <pt x="191" y="162" on="1"/>
        <pt x="155" y="101" on="0"/>
        <pt x="97" y="30" on="0"/>
        <pt x="38" y="0" on="0"/>
      </contour>
    </TTGlyph>
    <TTGlyph name="glyph00512" xMin="-40" yMin="0" xMax="628" yMax="722">
      <contour>
        <pt x="0" y="0" on="1"/>
        <pt x="-16" y="0" on="0"/>
        <pt x="-40" y="39" on="0"/>
        <pt x="-40" y="78" on="1"/>
        <pt x="-40" y="118" on="0"/>
        <pt x="4" y="182" on="0"/>
        <pt x="72" y="220" on="0"/>
        <pt x="107" y="220" on="1"/>
        <pt x="154" y="220" on="0"/>
        <pt x="213" y="232" on="0"/>
        <pt x="267" y="263" on="0"/>
        <pt x="304" y="293" on="1"/>
        <pt x="240" y="299" on="0"/>
        <pt x="161" y="365" on="0"/>
        <pt x="161" y="432" on="1"/>
        <pt x="161" y="510" on="0"/>
        <pt x="258" y="616" on="1"/>
        <pt x="355" y="722" on="0"/>
        <pt x="443" y="722" on="1"/>
        <pt x="478" y="722" on="0"/>
        <pt x="521" y="691" on="0"/>
        <pt x="521" y="659" on="1"/>
        <pt x="521" y="634" on="0"/>
        <pt x="496" y="600" on="0"/>
        <pt x="479" y="592" on="1"/>
        <pt x="472" y="592" on="1"/>
        <pt x="458" y="605" on="0"/>
        <pt x="414" y="623" on="0"/>
        <pt x="391" y="623" on="1"/>
        <pt x="347" y="623" on="0"/>
        <pt x="293" y="579" on="0"/>
        <pt x="293" y="547" on="1"/>
        <pt x="293" y="507" on="0"/>
        <pt x="366" y="462" on="0"/>
        <pt x="426" y="462" on="1"/>
        <pt x="449" y="462" on="0"/>
        <pt x="497" y="480" on="0"/>
        <pt x="518" y="499" on="1"/>
        <pt x="543" y="522" on="0"/>
        <pt x="589" y="567" on="0"/>
        <pt x="613" y="590" on="1"/>
        <pt x="628" y="581" on="1"/>
        <pt x="623" y="562" on="0"/>
        <pt x="613" y="526" on="0"/>
        <pt x="605" y="507" on="1"/>
        <pt x="597" y="487" on="0"/>
        <pt x="565" y="442" on="0"/>
        <pt x="539" y="417" on="1"/>
        <pt x="514" y="392" on="0"/>
        <pt x="435" y="307" on="0"/>
        <pt x="382" y="246" on="1"/>
        <pt x="329" y="185" on="0"/>
        <pt x="249" y="103" on="0"/>
        <pt x="222" y="82" on="1"/>
        <pt x="162" y="36" on="0"/>
        <pt x="56" y="0" on="0"/>
      </contour>
    </TTGlyph>
    <TTGlyph name="glyph00547" xMin="-40" yMin="0" xMax="449" yMax="462">
      <contour>
        <pt x="0" y="0" on="1"/>
        <pt x="-16" y="0" on="0"/>
        <pt x="-40" y="39" on="0"/>
        <pt x="-40" y="78" on="1"/>
        <pt x="-40" y="118" on="0"/>
        <pt x="4" y="182" on="0"/>
        <pt x="72" y="220" on="0"/>
        <pt x="107" y="220" on="1"/>
        <pt x="140" y="220" on="0"/>
        <pt x="196" y="243" on="0"/>
        <pt x="211" y="257" on="1"/>
        <pt x="184" y="298" on="0"/>
        <pt x="130" y="328" on="0"/>
        <pt x="110" y="328" on="1"/>
        <pt x="106" y="328" on="1"/>
        <pt x="98" y="349" on="1"/>
        <pt x="121" y="404" on="0"/>
        <pt x="220" y="462" on="0"/>
        <pt x="290" y="462" on="1"/>
        <pt x="354" y="462" on="0"/>
        <pt x="426" y="409" on="0"/>
        <pt x="426" y="366" on="1"/>
        <pt x="426" y="342" on="0"/>
        <pt x="397" y="297" on="0"/>
        <pt x="371" y="271" on="1"/>
        <pt x="376" y="270" on="0"/>
        <pt x="395" y="265" on="0"/>
        <pt x="409" y="265" on="1"/>
        <pt x="426" y="265" on="0"/>
        <pt x="449" y="237" on="0"/>
        <pt x="449" y="205" on="1"/>
        <pt x="449" y="180" on="0"/>
        <pt x="419" y="129" on="0"/>
        <pt x="379" y="129" on="1"/>
        <pt x="352" y="129" on="0"/>
        <pt x="303" y="145" on="0"/>
        <pt x="283" y="163" on="1"/>
        <pt x="223" y="106" on="1"/>
        <pt x="180" y="64" on="0"/>
        <pt x="64" y="0" on="0"/>
      </contour>
    </TTGlyph>
    <TTGlyph name="glyph00549" xMin="-45" yMin="0" xMax="390" yMax="464">
      <contour>
        <pt x="0" y="0" on="1"/>
        <pt x="-21" y="0" on="0"/>
        <pt x="-45" y="48" on="0"/>
        <pt x="-45" y="101" on="1"/>
        <pt x="-45" y="166" on="0"/>
        <pt x="7" y="228" on="0"/>
        <pt x="49" y="228" on="1"/>
        <pt x="76" y="228" on="0"/>
        <pt x="128" y="245" on="0"/>
        <pt x="152" y="259" on="1"/>
        <pt x="104" y="330" on="0"/>
        <pt x="47" y="330" on="1"/>
        <pt x="39" y="351" on="1"/>
        <pt x="62" y="406" on="0"/>
        <pt x="161" y="464" on="0"/>
        <pt x="231" y="464" on="1"/>
        <pt x="295" y="464" on="0"/>
        <pt x="368" y="412" on="0"/>
        <pt x="368" y="368" on="1"/>
        <pt x="368" y="343" on="0"/>
        <pt x="338" y="283" on="0"/>
        <pt x="317" y="263" on="1"/>
        <pt x="322" y="261" on="0"/>
        <pt x="337" y="257" on="0"/>
        <pt x="350" y="257" on="1"/>
        <pt x="373" y="257" on="0"/>
        <pt x="390" y="221" on="0"/>
        <pt x="390" y="202" on="1"/>
        <pt x="390" y="168" on="0"/>
        <pt x="356" y="121" on="0"/>
        <pt x="320" y="121" on="1"/>
        <pt x="295" y="121" on="0"/>
        <pt x="250" y="136" on="0"/>
        <pt x="227" y="155" on="1"/>
        <pt x="142" y="56" on="0"/>
        <pt x="94" y="28" on="1"/>
        <pt x="45" y="0" on="0"/>
      </contour>
    </TTGlyph>
    <TTGlyph name="glyph00551" xMin="-40" yMin="0" xMax="462" yMax="481">
      <contour>
        <pt x="0" y="0" on="1"/>
        <pt x="-40" y="0" on="0"/>
        <pt x="-40" y="80" on="1"/>
        <pt x="-40" y="136" on="0"/>
        <pt x="4" y="190" on="0"/>
        <pt x="34" y="190" on="1"/>
        <pt x="64" y="190" on="0"/>
        <pt x="137" y="206" on="0"/>
        <pt x="209" y="237" on="0"/>
        <pt x="236" y="258" on="1"/>
        <pt x="183" y="347" on="0"/>
        <pt x="119" y="347" on="1"/>
        <pt x="111" y="368" on="1"/>
        <pt x="134" y="423" on="0"/>
        <pt x="233" y="481" on="0"/>
        <pt x="303" y="481" on="1"/>
        <pt x="367" y="481" on="0"/>
        <pt x="440" y="429" on="0"/>
        <pt x="440" y="385" on="1"/>
        <pt x="440" y="360" on="0"/>
        <pt x="410" y="300" on="0"/>
        <pt x="389" y="280" on="1"/>
        <pt x="394" y="278" on="0"/>
        <pt x="409" y="274" on="0"/>
        <pt x="422" y="274" on="1"/>
        <pt x="445" y="274" on="0"/>
        <pt x="462" y="238" on="0"/>
        <pt x="462" y="219" on="1"/>
        <pt x="462" y="185" on="0"/>
        <pt x="428" y="138" on="0"/>
        <pt x="392" y="138" on="1"/>
        <pt x="365" y="138" on="0"/>
        <pt x="316" y="153" on="0"/>
        <pt x="291" y="175" on="1"/>
        <pt x="272" y="161" on="0"/>
        <pt x="179" y="81" on="1"/>
        <pt x="85" y="0" on="0"/>
      </contour>
    </TTGlyph>
    <TTGlyph name="glyph00552" xMin="-40" yMin="0" xMax="477" yMax="439">
      <contour>
        <pt x="0" y="0" on="1"/>
        <pt x="-18" y="0" on="0"/>
        <pt x="-40" y="31" on="0"/>
        <pt x="-40" y="70" on="1"/>
        <pt x="-40" y="117" on="0"/>
        <pt x="2" y="166" on="0"/>
        <pt x="30" y="166" on="1"/>
        <pt x="67" y="166" on="0"/>
        <pt x="145" y="184" on="0"/>
        <pt x="214" y="217" on="0"/>
        <pt x="237" y="237" on="1"/>
        <pt x="189" y="305" on="0"/>
        <pt x="134" y="305" on="1"/>
        <pt x="126" y="326" on="1"/>
        <pt x="149" y="381" on="0"/>
        <pt x="248" y="439" on="0"/>
        <pt x="318" y="439" on="1"/>
        <pt x="382" y="439" on="0"/>
        <pt x="455" y="387" on="0"/>
        <pt x="455" y="343" on="1"/>
        <pt x="455" y="294" on="0"/>
        <pt x="404" y="238" on="1"/>
        <pt x="409" y="236" on="0"/>
        <pt x="424" y="232" on="0"/>
        <pt x="437" y="232" on="1"/>
        <pt x="460" y="232" on="0"/>
        <pt x="477" y="196" on="0"/>
        <pt x="477" y="177" on="1"/>
        <pt x="477" y="143" on="0"/>
        <pt x="443" y="96" on="0"/>
        <pt x="407" y="96" on="1"/>
        <pt x="384" y="96" on="0"/>
        <pt x="357" y="103" on="1"/>
        <pt x="328" y="111" on="0"/>
        <pt x="304" y="136" on="1"/>
        <pt x="231" y="71" on="0"/>
        <pt x="78" y="0" on="0"/>
      </contour>
    </TTGlyph>
    <TTGlyph name="glyph00553" xMin="-103" yMin="-15" xMax="281" yMax="344">
      <contour>
        <pt x="-61" y="-15" on="1"/>
        <pt x="-82" y="-15" on="0"/>
        <pt x="-103" y="10" on="0"/>
        <pt x="-103" y="24" on="1"/>
        <pt x="-103" y="55" on="0"/>
        <pt x="-59" y="101" on="0"/>
        <pt x="7" y="135" on="0"/>
        <pt x="38" y="146" on="1"/>
        <pt x="-9" y="210" on="0"/>
        <pt x="-62" y="210" on="1"/>
        <pt x="-70" y="231" on="1"/>
        <pt x="-47" y="286" on="0"/>
        <pt x="52" y="344" on="0"/>
        <pt x="122" y="344" on="1"/>
        <pt x="186" y="344" on="0"/>
        <pt x="259" y="292" on="0"/>
        <pt x="259" y="248" on="1"/>
        <pt x="259" y="199" on="0"/>
        <pt x="208" y="143" on="1"/>
        <pt x="213" y="141" on="0"/>
        <pt x="228" y="137" on="0"/>
        <pt x="241" y="137" on="1"/>
        <pt x="264" y="137" on="0"/>
        <pt x="281" y="101" on="0"/>
        <pt x="281" y="82" on="1"/>
        <pt x="281" y="66" on="0"/>
        <pt x="270" y="28" on="0"/>
        <pt x="240" y="1" on="0"/>
        <pt x="211" y="1" on="1"/>
        <pt x="176" y="1" on="0"/>
        <pt x="118" y="25" on="0"/>
        <pt x="97" y="56" on="1"/>
        <pt x="81" y="44" on="0"/>
        <pt x="25" y="10" on="0"/>
        <pt x="-36" y="-15" on="0"/>
      </contour>
    </TTGlyph>
    <TTGlyph name="glyph00559" xMin="-17" yMin="-56" xMax="406" yMax="372">
      <contour>
        <pt x="0" y="-56" on="1"/>
        <pt x="-7" y="-56" on="0"/>
        <pt x="-17" y="-51" on="0"/>
        <pt x="-17" y="-43" on="1"/>
        <pt x="-17" y="-32" on="0"/>
        <pt x="20" y="38" on="0"/>
        <pt x="99" y="132" on="0"/>
        <pt x="162" y="177" on="1"/>
        <pt x="113" y="238" on="0"/>
        <pt x="63" y="238" on="1"/>
        <pt x="55" y="259" on="1"/>
        <pt x="78" y="314" on="0"/>
        <pt x="177" y="372" on="0"/>
        <pt x="247" y="372" on="1"/>
        <pt x="311" y="372" on="0"/>
        <pt x="384" y="320" on="0"/>
        <pt x="384" y="276" on="1"/>
        <pt x="384" y="245" on="0"/>
        <pt x="354" y="191" on="0"/>
        <pt x="331" y="172" on="1"/>
        <pt x="335" y="171" on="0"/>
        <pt x="351" y="165" on="0"/>
        <pt x="366" y="165" on="1"/>
        <pt x="389" y="165" on="0"/>
        <pt x="406" y="129" on="0"/>
        <pt x="406" y="110" on="1"/>
        <pt x="406" y="76" on="0"/>
        <pt x="372" y="29" on="0"/>
        <pt x="336" y="29" on="1"/>
        <pt x="295" y="29" on="0"/>
        <pt x="232" y="66" on="0"/>
        <pt x="200" y="111" on="1"/>
        <pt x="87" y="54" on="0"/>
        <pt x="59" y="-1" on="1"/>
        <pt x="31" y="-56" on="0"/>
      </contour>
    </TTGlyph>
    <TTGlyph name="glyph00565" xMin="-45" yMin="0" xMax="405" yMax="517">
      <contour>
        <pt x="0" y="0" on="1"/>
        <pt x="-21" y="0" on="0"/>
        <pt x="-45" y="44" on="0"/>
        <pt x="-45" y="104" on="1"/>
        <pt x="-45" y="168" on="0"/>
        <pt x="-19" y="192" on="1"/>
        <pt x="-19" y="301" on="0"/>
        <pt x="83" y="409" on="1"/>
        <pt x="185" y="517" on="0"/>
        <pt x="276" y="517" on="1"/>
        <pt x="308" y="517" on="0"/>
        <pt x="357" y="486" on="0"/>
        <pt x="357" y="455" on="1"/>
        <pt x="357" y="435" on="0"/>
        <pt x="340" y="399" on="0"/>
        <pt x="321" y="386" on="1"/>
        <pt x="313" y="386" on="1"/>
        <pt x="295" y="404" on="0"/>
        <pt x="255" y="426" on="0"/>
        <pt x="229" y="426" on="1"/>
        <pt x="191" y="426" on="0"/>
        <pt x="142" y="396" on="0"/>
        <pt x="118" y="353" on="0"/>
        <pt x="118" y="334" on="1"/>
        <pt x="118" y="294" on="0"/>
        <pt x="188" y="248" on="0"/>
        <pt x="234" y="248" on="1"/>
        <pt x="289" y="261" on="0"/>
        <pt x="325" y="294" on="1"/>
        <pt x="360" y="326" on="0"/>
        <pt x="381" y="359" on="1"/>
        <pt x="405" y="346" on="1"/>
        <pt x="383" y="280" on="0"/>
        <pt x="305" y="157" on="0"/>
        <pt x="200" y="58" on="0"/>
        <pt x="72" y="0" on="0"/>
      </contour>
    </TTGlyph>
    <TTGlyph name="glyph00566" xMin="-40" yMin="0" xMax="582" yMax="630">
      <contour>
        <pt x="0" y="0" on="1"/>
        <pt x="-40" y="0" on="0"/>
        <pt x="-40" y="80" on="1"/>
        <pt x="-40" y="136" on="0"/>
        <pt x="4" y="190" on="0"/>
        <pt x="34" y="190" on="1"/>
        <pt x="78" y="190" on="0"/>
        <pt x="152" y="216" on="0"/>
        <pt x="173" y="229" on="1"/>
        <pt x="133" y="246" on="0"/>
        <pt x="95" y="298" on="0"/>
        <pt x="95" y="343" on="1"/>
        <pt x="95" y="424" on="0"/>
        <pt x="197" y="527" on="1"/>
        <pt x="299" y="630" on="0"/>
        <pt x="389" y="630" on="1"/>
        <pt x="421" y="630" on="0"/>
        <pt x="472" y="599" on="0"/>
        <pt x="472" y="568" on="1"/>
        <pt x="472" y="540" on="0"/>
        <pt x="445" y="505" on="0"/>
        <pt x="425" y="497" on="1"/>
        <pt x="418" y="497" on="1"/>
        <pt x="376" y="539" on="0"/>
        <pt x="333" y="539" on="1"/>
        <pt x="284" y="539" on="0"/>
        <pt x="238" y="488" on="0"/>
        <pt x="238" y="461" on="1"/>
        <pt x="238" y="417" on="0"/>
        <pt x="282" y="393" on="1"/>
        <pt x="326" y="369" on="0"/>
        <pt x="370" y="369" on="1"/>
        <pt x="405" y="369" on="0"/>
        <pt x="419" y="376" on="1"/>
        <pt x="433" y="382" on="0"/>
        <pt x="492" y="423" on="1"/>
        <pt x="568" y="475" on="1"/>
        <pt x="582" y="464" on="1"/>
        <pt x="566" y="426" on="0"/>
        <pt x="539" y="380" on="0"/>
        <pt x="509" y="349" on="0"/>
        <pt x="486" y="331" on="1"/>
        <pt x="443" y="299" on="0"/>
        <pt x="386" y="255" on="0"/>
        <pt x="341" y="221" on="0"/>
        <pt x="295" y="185" on="0"/>
        <pt x="235" y="137" on="0"/>
        <pt x="190" y="101" on="1"/>
        <pt x="121" y="45" on="0"/>
        <pt x="38" y="0" on="0"/>
      </contour>
    </TTGlyph>
    <TTGlyph name="glyph00567" xMin="-40" yMin="0" xMax="669" yMax="597">
      <contour>
        <pt x="0" y="0" on="1"/>
        <pt x="-17" y="0" on="0"/>
        <pt x="-40" y="30" on="0"/>
        <pt x="-40" y="63" on="1"/>
        <pt x="-40" y="98" on="0"/>
        <pt x="-1" y="136" on="0"/>
        <pt x="30" y="136" on="1"/>
        <pt x="110" y="136" on="0"/>
        <pt x="173" y="153" on="1"/>
        <pt x="233" y="169" on="0"/>
        <pt x="265" y="192" on="1"/>
        <pt x="231" y="207" on="0"/>
        <pt x="182" y="258" on="0"/>
        <pt x="182" y="310" on="1"/>
        <pt x="182" y="391" on="0"/>
        <pt x="284" y="494" on="1"/>
        <pt x="386" y="597" on="0"/>
        <pt x="476" y="597" on="1"/>
        <pt x="508" y="597" on="0"/>
        <pt x="559" y="566" on="0"/>
        <pt x="559" y="535" on="1"/>
        <pt x="559" y="507" on="0"/>
        <pt x="532" y="472" on="0"/>
        <pt x="512" y="464" on="1"/>
        <pt x="505" y="464" on="1"/>
        <pt x="479" y="490" on="0"/>
        <pt x="437" y="506" on="0"/>
        <pt x="417" y="506" on="1"/>
        <pt x="371" y="506" on="0"/>
        <pt x="326" y="456" on="0"/>
        <pt x="326" y="430" on="1"/>
        <pt x="326" y="397" on="0"/>
        <pt x="369" y="356" on="0"/>
        <pt x="431" y="336" on="0"/>
        <pt x="457" y="336" on="1"/>
        <pt x="484" y="336" on="0"/>
        <pt x="499" y="341" on="1"/>
        <pt x="506" y="343" on="0"/>
        <pt x="545" y="367" on="0"/>
        <pt x="579" y="390" on="1"/>
        <pt x="655" y="442" on="1"/>
        <pt x="669" y="431" on="1"/>
        <pt x="656" y="401" on="0"/>
        <pt x="628" y="355" on="0"/>
        <pt x="578" y="308" on="0"/>
        <pt x="532" y="278" on="1"/>
        <pt x="494" y="253" on="0"/>
        <pt x="443" y="219" on="0"/>
        <pt x="403" y="192" on="0"/>
        <pt x="365" y="165" on="0"/>
        <pt x="341" y="146" on="1"/>
        <pt x="309" y="121" on="0"/>
        <pt x="228" y="74" on="0"/>
        <pt x="179" y="49" on="1"/>
        <pt x="82" y="0" on="0"/>
      </contour>
    </TTGlyph>
    <TTGlyph name="glyph00569" xMin="-10" yMin="-46" xMax="568" yMax="575">
      <contour>
        <pt x="2" y="-46" on="1"/>
        <pt x="-4" y="-46" on="0"/>
        <pt x="-10" y="-36" on="0"/>
        <pt x="-10" y="-30" on="1"/>
        <pt x="-10" y="-10" on="0"/>
        <pt x="32" y="50" on="1"/>
        <pt x="73" y="109" on="0"/>
        <pt x="161" y="172" on="1"/>
        <pt x="115" y="189" on="0"/>
        <pt x="79" y="243" on="0"/>
        <pt x="79" y="284" on="1"/>
        <pt x="79" y="364" on="0"/>
        <pt x="183" y="470" on="1"/>
        <pt x="287" y="575" on="0"/>
        <pt x="376" y="575" on="1"/>
        <pt x="408" y="575" on="0"/>
        <pt x="459" y="544" on="0"/>
        <pt x="459" y="513" on="1"/>
        <pt x="459" y="485" on="0"/>
        <pt x="432" y="450" on="0"/>
        <pt x="412" y="442" on="1"/>
        <pt x="405" y="442" on="1"/>
        <pt x="386" y="465" on="0"/>
        <pt x="338" y="484" on="0"/>
        <pt x="320" y="484" on="1"/>
        <pt x="283" y="484" on="0"/>
        <pt x="226" y="444" on="0"/>
        <pt x="226" y="409" on="1"/>
        <pt x="226" y="385" on="0"/>
        <pt x="255" y="351" on="0"/>
        <pt x="299" y="328" on="0"/>
        <pt x="346" y="317" on="0"/>
        <pt x="364" y="317" on="1"/>
        <pt x="384" y="317" on="0"/>
        <pt x="406" y="324" on="0"/>
        <pt x="434" y="342" on="0"/>
        <pt x="461" y="359" on="1"/>
        <pt x="479" y="370" on="0"/>
        <pt x="520" y="399" on="0"/>
        <pt x="554" y="423" on="1"/>
        <pt x="568" y="412" on="1"/>
        <pt x="554" y="369" on="0"/>
        <pt x="526" y="325" on="0"/>
        <pt x="497" y="302" on="1"/>
        <pt x="478" y="286" on="0"/>
        <pt x="370" y="218" on="0"/>
        <pt x="281" y="167" on="1"/>
        <pt x="103" y="64" on="0"/>
        <pt x="70" y="14" on="1"/>
        <pt x="53" y="-12" on="0"/>
        <pt x="33" y="-38" on="0"/>
        <pt x="16" y="-46" on="0"/>
      </contour>
    </TTGlyph>
    <TTGlyph name="glyph00572" xMin="-122" yMin="-4" xMax="371" yMax="437">
      <contour>
        <pt x="-15" y="-4" on="1"/>
        <pt x="-23" y="-4" on="0"/>
        <pt x="-41" y="8" on="0"/>
        <pt x="-41" y="22" on="1"/>
        <pt x="-41" y="26" on="0"/>
        <pt x="-40" y="31" on="0"/>
        <pt x="-39" y="33" on="1"/>
        <pt x="-83" y="48" on="0"/>
        <pt x="-122" y="102" on="0"/>
        <pt x="-122" y="146" on="1"/>
        <pt x="-122" y="226" on="0"/>
        <pt x="-18" y="332" on="1"/>
        <pt x="86" y="437" on="0"/>
        <pt x="175" y="437" on="1"/>
        <pt x="207" y="437" on="0"/>
        <pt x="258" y="406" on="0"/>
        <pt x="258" y="375" on="1"/>
        <pt x="258" y="347" on="0"/>
        <pt x="230" y="310" on="0"/>
        <pt x="210" y="302" on="1"/>
        <pt x="202" y="302" on="1"/>
        <pt x="192" y="317" on="0"/>
        <pt x="143" y="345" on="0"/>
        <pt x="114" y="345" on="1"/>
        <pt x="74" y="345" on="0"/>
        <pt x="23" y="299" on="0"/>
        <pt x="23" y="270" on="1"/>
        <pt x="23" y="247" on="0"/>
        <pt x="58" y="208" on="0"/>
        <pt x="113" y="185" on="0"/>
        <pt x="143" y="185" on="1"/>
        <pt x="156" y="185" on="0"/>
        <pt x="175" y="189" on="0"/>
        <pt x="184" y="193" on="1"/>
        <pt x="216" y="206" on="0"/>
        <pt x="285" y="238" on="0"/>
        <pt x="343" y="268" on="0"/>
        <pt x="358" y="278" on="1"/>
        <pt x="371" y="266" on="1"/>
        <pt x="347" y="202" on="0"/>
        <pt x="317" y="176" on="1"/>
        <pt x="302" y="163" on="0"/>
        <pt x="215" y="111" on="0"/>
        <pt x="144" y="73" on="1"/>
        <pt x="-1" y="-4" on="0"/>
      </contour>
    </TTGlyph>
    <TTGlyph name="glyph00695" xMin="-179" yMin="-185" xMax="175" yMax="223">
      <contour>
        <pt x="-156" y="-185" on="1"/>
        <pt x="-179" y="-185" on="0"/>
        <pt x="-179" y="-162" on="1"/>
        <pt x="-179" y="-158" on="0"/>
        <pt x="-176" y="-146" on="0"/>
        <pt x="-170" y="-135" on="1"/>
        <pt x="-100" y="-9" on="1"/>
        <pt x="-86" y="17" on="0"/>
        <pt x="-32" y="67" on="0"/>
        <pt x="9" y="89" on="1"/>
        <pt x="50" y="112" on="0"/>
        <pt x="100" y="144" on="0"/>
        <pt x="110" y="154" on="1"/>
        <pt x="128" y="172" on="0"/>
        <pt x="145" y="223" on="1"/>
        <pt x="175" y="219" on="1"/>
        <pt x="138" y="32" on="0"/>
        <pt x="92" y="-21" on="1"/>
        <pt x="70" y="-47" on="0"/>
        <pt x="8" y="-85" on="0"/>
        <pt x="-30" y="-98" on="1"/>
        <pt x="-107" y="-124" on="0"/>
        <pt x="-119" y="-154" on="1"/>
        <pt x="-131" y="-185" on="0"/>
      </contour>
    </TTGlyph>
    <TTGlyph name="glyph00794" xMin="-40" yMin="0" xMax="461" yMax="535">
      <contour>
        <pt x="0" y="0" on="1"/>
        <pt x="-22" y="0" on="0"/>
        <pt x="-40" y="50" on="0"/>
        <pt x="-40" y="78" on="1"/>
        <pt x="-40" y="118" on="0"/>
        <pt x="4" y="182" on="0"/>
        <pt x="72" y="220" on="0"/>
        <pt x="107" y="220" on="1"/>
        <pt x="198" y="220" on="0"/>
        <pt x="206" y="330" on="1"/>
        <pt x="213" y="439" on="0"/>
        <pt x="270" y="535" on="1"/>
        <pt x="295" y="530" on="1"/>
        <pt x="292" y="516" on="0"/>
        <pt x="290" y="494" on="0"/>
        <pt x="290" y="480" on="1"/>
        <pt x="290" y="432" on="0"/>
        <pt x="354" y="380" on="0"/>
        <pt x="417" y="380" on="1"/>
        <pt x="461" y="380" on="0"/>
        <pt x="461" y="276" on="1"/>
        <pt x="461" y="229" on="0"/>
        <pt x="430" y="174" on="0"/>
        <pt x="387" y="152" on="0"/>
        <pt x="367" y="152" on="1"/>
        <pt x="305" y="152" on="0"/>
        <pt x="238" y="194" on="0"/>
        <pt x="223" y="219" on="1"/>
        <pt x="207" y="169" on="0"/>
        <pt x="166" y="88" on="0"/>
        <pt x="140" y="59" on="1"/>
        <pt x="87" y="0" on="0"/>
      </contour>
    </TTGlyph>
    <TTGlyph name="glyph00795" xMin="-40" yMin="0" xMax="398" yMax="340">
      <contour>
        <pt x="0" y="0" on="1"/>
        <pt x="-22" y="0" on="0"/>
        <pt x="-40" y="50" on="0"/>
        <pt x="-40" y="78" on="1"/>
        <pt x="-40" y="118" on="0"/>
        <pt x="4" y="182" on="0"/>
        <pt x="72" y="220" on="0"/>
        <pt x="107" y="220" on="1"/>
        <pt x="136" y="220" on="0"/>
        <pt x="189" y="240" on="0"/>
        <pt x="211" y="272" on="1"/>
        <pt x="234" y="305" on="1"/>
        <pt x="248" y="325" on="0"/>
        <pt x="269" y="340" on="0"/>
        <pt x="283" y="340" on="1"/>
        <pt x="296" y="340" on="0"/>
        <pt x="314" y="333" on="1"/>
        <pt x="331" y="326" on="0"/>
        <pt x="358" y="326" on="1"/>
        <pt x="398" y="326" on="0"/>
        <pt x="398" y="246" on="1"/>
        <pt x="398" y="191" on="0"/>
        <pt x="355" y="136" on="0"/>
        <pt x="324" y="136" on="1"/>
        <pt x="306" y="136" on="0"/>
        <pt x="274" y="146" on="0"/>
        <pt x="259" y="155" on="1"/>
        <pt x="229" y="173" on="0"/>
        <pt x="217" y="173" on="1"/>
        <pt x="205" y="173" on="0"/>
        <pt x="149" y="87" on="1"/>
        <pt x="94" y="0" on="0"/>
      </contour>
    </TTGlyph>
    <TTGlyph name="glyph00797" xMin="-40" yMin="0" xMax="462" yMax="481">
      <contour>
        <pt x="0" y="0" on="1"/>
        <pt x="-40" y="0" on="0"/>
        <pt x="-40" y="80" on="1"/>
        <pt x="-40" y="136" on="0"/>
        <pt x="4" y="190" on="0"/>
        <pt x="34" y="190" on="1"/>
        <pt x="64" y="190" on="0"/>
        <pt x="137" y="206" on="0"/>
        <pt x="209" y="237" on="0"/>
        <pt x="236" y="258" on="1"/>
        <pt x="211" y="299" on="0"/>
        <pt x="153" y="347" on="0"/>
        <pt x="123" y="347" on="1"/>
        <pt x="119" y="347" on="1"/>
        <pt x="111" y="368" on="1"/>
        <pt x="134" y="423" on="0"/>
        <pt x="233" y="481" on="0"/>
        <pt x="303" y="481" on="1"/>
        <pt x="367" y="481" on="0"/>
        <pt x="440" y="429" on="0"/>
        <pt x="440" y="385" on="1"/>
        <pt x="440" y="360" on="0"/>
        <pt x="410" y="300" on="0"/>
        <pt x="389" y="280" on="1"/>
        <pt x="394" y="278" on="0"/>
        <pt x="409" y="274" on="0"/>
        <pt x="422" y="274" on="1"/>
        <pt x="445" y="274" on="0"/>
        <pt x="462" y="238" on="0"/>
        <pt x="462" y="219" on="1"/>
        <pt x="462" y="186" on="0"/>
        <pt x="446" y="163" on="1"/>
        <pt x="430" y="138" on="0"/>
        <pt x="392" y="138" on="1"/>
        <pt x="365" y="138" on="0"/>
        <pt x="316" y="153" on="0"/>
        <pt x="291" y="175" on="1"/>
        <pt x="272" y="161" on="0"/>
        <pt x="179" y="81" on="1"/>
        <pt x="85" y="0" on="0"/>
      </contour>
    </TTGlyph>
    <TTGlyph name="glyph00805" xMin="-45" yMin="0" xMax="390" yMax="464">
      <contour>
        <pt x="0" y="0" on="1"/>
        <pt x="-21" y="0" on="0"/>
        <pt x="-45" y="48" on="0"/>
        <pt x="-45" y="101" on="1"/>
        <pt x="-45" y="166" on="0"/>
        <pt x="7" y="228" on="0"/>
        <pt x="49" y="228" on="1"/>
        <pt x="76" y="228" on="0"/>
        <pt x="128" y="245" on="0"/>
        <pt x="152" y="259" on="1"/>
        <pt x="125" y="300" on="0"/>
        <pt x="71" y="330" on="0"/>
        <pt x="51" y="330" on="1"/>
        <pt x="47" y="330" on="1"/>
        <pt x="39" y="351" on="1"/>
        <pt x="62" y="406" on="0"/>
        <pt x="161" y="464" on="0"/>
        <pt x="231" y="464" on="1"/>
        <pt x="295" y="464" on="0"/>
        <pt x="368" y="412" on="0"/>
        <pt x="368" y="368" on="1"/>
        <pt x="368" y="343" on="0"/>
        <pt x="338" y="283" on="0"/>
        <pt x="317" y="263" on="1"/>
        <pt x="322" y="261" on="0"/>
        <pt x="337" y="257" on="0"/>
        <pt x="350" y="257" on="1"/>
        <pt x="373" y="257" on="0"/>
        <pt x="390" y="221" on="0"/>
        <pt x="390" y="202" on="1"/>
        <pt x="390" y="169" on="0"/>
        <pt x="374" y="146" on="1"/>
        <pt x="358" y="121" on="0"/>
        <pt x="320" y="121" on="1"/>
        <pt x="295" y="121" on="0"/>
        <pt x="250" y="136" on="0"/>
        <pt x="227" y="155" on="1"/>
        <pt x="142" y="56" on="0"/>
        <pt x="94" y="28" on="1"/>
        <pt x="45" y="0" on="0"/>
      </contour>
    </TTGlyph>
    <TTGlyph name="glyph00826" xMin="-45" yMin="0" xMax="463" yMax="488">
      <contour>
        <pt x="0" y="0" on="1"/>
        <pt x="-19" y="0" on="0"/>
        <pt x="-45" y="46" on="0"/>
        <pt x="-45" y="101" on="1"/>
        <pt x="-45" y="166" on="0"/>
        <pt x="7" y="228" on="0"/>
        <pt x="49" y="228" on="1"/>
        <pt x="93" y="228" on="0"/>
        <pt x="161" y="263" on="0"/>
        <pt x="186" y="289" on="1"/>
        <pt x="214" y="318" on="0"/>
        <pt x="214" y="330" on="1"/>
        <pt x="214" y="338" on="0"/>
        <pt x="228" y="390" on="0"/>
        <pt x="254" y="458" on="0"/>
        <pt x="272" y="488" on="1"/>
        <pt x="297" y="483" on="1"/>
        <pt x="294" y="469" on="0"/>
        <pt x="292" y="447" on="0"/>
        <pt x="292" y="433" on="1"/>
        <pt x="292" y="385" on="0"/>
        <pt x="356" y="333" on="0"/>
        <pt x="419" y="333" on="1"/>
        <pt x="463" y="333" on="0"/>
        <pt x="463" y="229" on="1"/>
        <pt x="463" y="182" on="0"/>
        <pt x="432" y="127" on="0"/>
        <pt x="389" y="105" on="0"/>
        <pt x="369" y="105" on="1"/>
        <pt x="302" y="105" on="0"/>
        <pt x="226" y="161" on="0"/>
        <pt x="212" y="213" on="1"/>
        <pt x="205" y="200" on="0"/>
        <pt x="190" y="176" on="0"/>
        <pt x="183" y="163" on="1"/>
        <pt x="140" y="81" on="0"/>
        <pt x="53" y="0" on="0"/>
      </contour>
    </TTGlyph>
    <TTGlyph name="glyph00859" xMin="18" yMin="-373" xMax="906" yMax="829">
      <contour>
        <pt x="358" y="-373" on="1"/>
        <pt x="252" y="-373" on="0"/>
        <pt x="100" y="-293" on="0"/>
        <pt x="18" y="-149" on="0"/>
        <pt x="18" y="-52" on="1"/>
        <pt x="18" y="79" on="0"/>
        <pt x="122" y="281" on="0"/>
        <pt x="231" y="373" on="1"/>
        <pt x="173" y="394" on="0"/>
        <pt x="127" y="461" on="0"/>
        <pt x="127" y="508" on="1"/>
        <pt x="127" y="581" on="0"/>
        <pt x="178" y="648" on="1"/>
        <pt x="228" y="714" on="0"/>
        <pt x="295" y="772" on="1"/>
        <pt x="360" y="829" on="0"/>
        <pt x="427" y="829" on="1"/>
        <pt x="463" y="829" on="0"/>
        <pt x="515" y="790" on="0"/>
        <pt x="515" y="754" on="1"/>
        <pt x="515" y="734" on="0"/>
        <pt x="496" y="695" on="0"/>
        <pt x="478" y="684" on="1"/>
        <pt x="466" y="685" on="1"/>
        <pt x="448" y="704" on="0"/>
        <pt x="400" y="720" on="0"/>
        <pt x="380" y="720" on="1"/>
        <pt x="339" y="720" on="0"/>
        <pt x="283" y="692" on="0"/>
        <pt x="255" y="649" on="0"/>
        <pt x="255" y="628" on="1"/>
        <pt x="255" y="585" on="0"/>
        <pt x="328" y="530" on="0"/>
        <pt x="393" y="530" on="1"/>
        <pt x="407" y="530" on="0"/>
        <pt x="437" y="533" on="0"/>
        <pt x="447" y="538" on="1"/>
        <pt x="474" y="552" on="1"/>
        <pt x="509" y="571" on="0"/>
        <pt x="582" y="616" on="0"/>
        <pt x="616" y="641" on="1"/>
        <pt x="633" y="629" on="1"/>
        <pt x="625" y="608" on="0"/>
        <pt x="595" y="566" on="1"/>
        <pt x="567" y="526" on="0"/>
        <pt x="525" y="503" on="1"/>
        <pt x="504" y="492" on="0"/>
        <pt x="439" y="454" on="0"/>
        <pt x="395" y="425" on="1"/>
        <pt x="305" y="367" on="0"/>
        <pt x="256" y="321" on="1"/>
        <pt x="191" y="260" on="0"/>
        <pt x="138" y="145" on="0"/>
        <pt x="138" y="79" on="1"/>
        <pt x="138" y="40" on="0"/>
        <pt x="165" y="-37" on="0"/>
        <pt x="228" y="-101" on="0"/>
        <pt x="335" y="-139" on="0"/>
        <pt x="416" y="-139" on="1"/>
        <pt x="472" y="-139" on="0"/>
        <pt x="596" y="-113" on="0"/>
        <pt x="720" y="-51" on="0"/>
        <pt x="831" y="57" on="0"/>
        <pt x="873" y="139" on="1"/>
        <pt x="906" y="128" on="1"/>
        <pt x="879" y="58" on="0"/>
        <pt x="803" y="-84" on="0"/>
        <pt x="706" y="-213" on="0"/>
        <pt x="585" y="-314" on="0"/>
        <pt x="442" y="-373" on="0"/>
      </contour>
    </TTGlyph>
    <TTGlyph name="glyph00971" xMin="-73" yMin="-73" xMax="73" yMax="73">
      <contour>
        <pt x="-62" y="-73" on="1"/>
        <pt x="-72" y="-63" on="1"/>
        <pt x="-11" y="0" on="1"/>
        <pt x="-73" y="62" on="1"/>
        <pt x="-63" y="73" on="1"/>
        <pt x="0" y="11" on="1"/>
        <pt x="62" y="73" on="1"/>
        <pt x="73" y="62" on="1"/>
        <pt x="11" y="0" on="1"/>
        <pt x="73" y="-63" on="1"/>
        <pt x="62" y="-73" on="1"/>
        <pt x="0" y="-11" on="1"/>
      </contour>
    </TTGlyph>
    <TTGlyph name="uni0631" xMin="-57" yMin="-80" xMax="446" yMax="486">
      <contour>
        <pt x="-49" y="-80" on="1"/>
        <pt x="-57" y="-55" on="1"/>
        <pt x="-30" y="-36" on="0"/>
        <pt x="49" y="23" on="0"/>
        <pt x="139" y="96" on="0"/>
        <pt x="224" y="171" on="0"/>
        <pt x="291" y="241" on="0"/>
        <pt x="307" y="268" on="1"/>
        <pt x="325" y="298" on="0"/>
        <pt x="350" y="344" on="0"/>
        <pt x="372" y="390" on="0"/>
        <pt x="395" y="446" on="0"/>
        <pt x="410" y="486" on="1"/>
        <pt x="446" y="481" on="1"/>
        <pt x="429" y="402" on="0"/>
        <pt x="377" y="251" on="0"/>
        <pt x="324" y="131" on="0"/>
        <pt x="303" y="99" on="1"/>
        <pt x="286" y="72" on="0"/>
        <pt x="260" y="36" on="0"/>
        <pt x="250" y="28" on="1"/>
        <pt x="230" y="11" on="0"/>
        <pt x="116" y="-28" on="1"/>
        <pt x="59" y="-47" on="0"/>
        <pt x="-23" y="-73" on="0"/>
      </contour>
    </TTGlyph>
    <TTGlyph name="uni063A" xMin="18" yMin="-373" xMax="906" yMax="1103">
      <contour>
        <pt x="318" y="906" on="1"/>
        <pt x="292" y="931" on="0"/>
        <pt x="261" y="959" on="0"/>
        <pt x="240" y="977" on="0"/>
        <pt x="226" y="987" on="1"/>
        <pt x="226" y="997" on="1"/>
        <pt x="233" y="1008" on="0"/>
        <pt x="259" y="1040" on="0"/>
        <pt x="290" y="1073" on="0"/>
        <pt x="316" y="1099" on="0"/>
        <pt x="322" y="1103" on="1"/>
        <pt x="332" y="1103" on="1"/>
        <pt x="373" y="1077" on="0"/>
        <pt x="418" y="1035" on="0"/>
        <pt x="418" y="1011" on="1"/>
        <pt x="418" y="986" on="0"/>
        <pt x="361" y="930" on="0"/>
        <pt x="326" y="906" on="1"/>
      </contour>
      <contour>
        <pt x="358" y="-373" on="1"/>
        <pt x="252" y="-373" on="0"/>
        <pt x="100" y="-293" on="0"/>
        <pt x="18" y="-149" on="0"/>
        <pt x="18" y="-52" on="1"/>
        <pt x="18" y="79" on="0"/>
        <pt x="122" y="281" on="0"/>
        <pt x="231" y="373" on="1"/>
        <pt x="173" y="394" on="0"/>
        <pt x="127" y="461" on="0"/>
        <pt x="127" y="508" on="1"/>
        <pt x="127" y="581" on="0"/>
        <pt x="178" y="648" on="1"/>
        <pt x="228" y="714" on="0"/>
        <pt x="295" y="772" on="1"/>
        <pt x="360" y="829" on="0"/>
        <pt x="427" y="829" on="1"/>
        <pt x="463" y="829" on="0"/>
        <pt x="515" y="790" on="0"/>
        <pt x="515" y="754" on="1"/>
        <pt x="515" y="734" on="0"/>
        <pt x="496" y="695" on="0"/>
        <pt x="478" y="684" on="1"/>
        <pt x="466" y="685" on="1"/>
        <pt x="448" y="704" on="0"/>
        <pt x="400" y="720" on="0"/>
        <pt x="380" y="720" on="1"/>
        <pt x="339" y="720" on="0"/>
        <pt x="283" y="692" on="0"/>
        <pt x="255" y="649" on="0"/>
        <pt x="255" y="628" on="1"/>
        <pt x="255" y="585" on="0"/>
        <pt x="328" y="530" on="0"/>
        <pt x="393" y="530" on="1"/>
        <pt x="407" y="530" on="0"/>
        <pt x="437" y="533" on="0"/>
        <pt x="447" y="538" on="1"/>
        <pt x="474" y="552" on="1"/>
        <pt x="509" y="571" on="0"/>
        <pt x="582" y="616" on="0"/>
        <pt x="616" y="641" on="1"/>
        <pt x="633" y="629" on="1"/>
        <pt x="625" y="608" on="0"/>
        <pt x="595" y="566" on="1"/>
        <pt x="567" y="526" on="0"/>
        <pt x="525" y="503" on="1"/>
        <pt x="504" y="492" on="0"/>
        <pt x="439" y="454" on="0"/>
        <pt x="395" y="425" on="1"/>
        <pt x="305" y="367" on="0"/>
        <pt x="256" y="321" on="1"/>
        <pt x="191" y="260" on="0"/>
        <pt x="138" y="145" on="0"/>
        <pt x="138" y="79" on="1"/>
        <pt x="138" y="40" on="0"/>
        <pt x="165" y="-37" on="0"/>
        <pt x="228" y="-101" on="0"/>
        <pt x="335" y="-139" on="0"/>
        <pt x="416" y="-139" on="1"/>
        <pt x="472" y="-139" on="0"/>
        <pt x="596" y="-113" on="0"/>
        <pt x="720" y="-51" on="0"/>
        <pt x="831" y="57" on="0"/>
        <pt x="873" y="139" on="1"/>
        <pt x="906" y="128" on="1"/>
        <pt x="879" y="58" on="0"/>
        <pt x="803" y="-84" on="0"/>
        <pt x="706" y="-213" on="0"/>
        <pt x="585" y="-314" on="0"/>
        <pt x="442" y="-373" on="0"/>
      </contour>
    </TTGlyph>
    <TTGlyph name="uni064A" xMin="17" yMin="-686" xMax="874" yMax="692">
      <contour>
        <pt x="270" y="-371" on="1"/>
        <pt x="187" y="-371" on="0"/>
        <pt x="74" y="-293" on="0"/>
        <pt x="17" y="-161" on="0"/>
        <pt x="17" y="-81" on="1"/>
        <pt x="17" y="-7" on="0"/>
        <pt x="54" y="159" on="0"/>
        <pt x="125" y="324" on="0"/>
        <pt x="176" y="397" on="1"/>
        <pt x="207" y="381" on="1"/>
        <pt x="164" y="310" on="0"/>
        <pt x="113" y="172" on="0"/>
        <pt x="113" y="84" on="1"/>
        <pt x="113" y="20" on="0"/>
        <pt x="151" y="-64" on="0"/>
        <pt x="215" y="-114" on="0"/>
        <pt x="292" y="-135" on="0"/>
        <pt x="331" y="-135" on="1"/>
        <pt x="454" y="-135" on="0"/>
        <pt x="546" y="-70" on="1"/>
        <pt x="638" y="-5" on="0"/>
        <pt x="638" y="30" on="1"/>
        <pt x="638" y="60" on="0"/>
        <pt x="558" y="81" on="1"/>
        <pt x="478" y="102" on="0"/>
        <pt x="478" y="195" on="1"/>
        <pt x="478" y="236" on="0"/>
        <pt x="509" y="341" on="0"/>
        <pt x="564" y="453" on="0"/>
        <pt x="634" y="558" on="0"/>
        <pt x="711" y="642" on="0"/>
        <pt x="790" y="692" on="0"/>
        <pt x="825" y="692" on="1"/>
        <pt x="874" y="692" on="0"/>
        <pt x="874" y="664" on="1"/>
        <pt x="874" y="660" on="0"/>
        <pt x="872" y="648" on="0"/>
        <pt x="868" y="640" on="1"/>
        <pt x="802" y="484" on="1"/>
        <pt x="789" y="482" on="1"/>
        <pt x="786" y="484" on="0"/>
        <pt x="767" y="488" on="0"/>
        <pt x="758" y="488" on="1"/>
        <pt x="733" y="488" on="0"/>
        <pt x="671" y="462" on="0"/>
        <pt x="614" y="421" on="0"/>
        <pt x="578" y="373" on="0"/>
        <pt x="578" y="350" on="1"/>
        <pt x="578" y="309" on="0"/>
        <pt x="628" y="295" on="1"/>
        <pt x="678" y="281" on="0"/>
        <pt x="702" y="262" on="1"/>
        <pt x="726" y="243" on="0"/>
        <pt x="726" y="177" on="1"/>
        <pt x="726" y="132" on="0"/>
        <pt x="694" y="13" on="0"/>
        <pt x="661" y="-61" on="1"/>
        <pt x="596" y="-208" on="0"/>
        <pt x="494" y="-290" on="1"/>
        <pt x="394" y="-371" on="0"/>
      </contour>
      <contour>
        <pt x="238" y="-686" on="1"/>
        <pt x="210" y="-660" on="0"/>
        <pt x="181" y="-633" on="0"/>
        <pt x="161" y="-615" on="0"/>
        <pt x="146" y="-605" on="1"/>
        <pt x="146" y="-595" on="1"/>
        <pt x="153" y="-584" on="0"/>
        <pt x="179" y="-552" on="0"/>
        <pt x="210" y="-519" on="0"/>
        <pt x="236" y="-493" on="0"/>
        <pt x="242" y="-489" on="1"/>
        <pt x="252" y="-489" on="1"/>
        <pt x="278" y="-505" on="0"/>
        <pt x="310" y="-532" on="0"/>
        <pt x="320" y="-543" on="1"/>
        <pt x="341" y="-518" on="0"/>
        <pt x="381" y="-477" on="0"/>
        <pt x="390" y="-471" on="1"/>
        <pt x="400" y="-471" on="1"/>
        <pt x="441" y="-497" on="0"/>
        <pt x="486" y="-539" on="0"/>
        <pt x="486" y="-563" on="1"/>
        <pt x="486" y="-588" on="0"/>
        <pt x="429" y="-644" on="0"/>
        <pt x="394" y="-668" on="1"/>
        <pt x="386" y="-668" on="1"/>
        <pt x="365" y="-648" on="0"/>
        <pt x="338" y="-623" on="0"/>
        <pt x="326" y="-613" on="1"/>
        <pt x="304" y="-647" on="0"/>
        <pt x="246" y="-686" on="1"/>
      </contour>
    </TTGlyph>
</ttFont>
